<svg width="408" height="407" viewBox="0 0 408 407" fill="none" xmlns="http://www.w3.org/2000/svg">
<path d="M381.392 170.351C371.956 167.384 367.084 168.384 357.187 167.303C341.887 165.634 335.791 159.654 333.206 144.265C331.759 135.674 333.467 123.096 329.773 115.308C322.708 100.46 306.177 93.8001 289.568 97.6012C275.546 100.815 263.879 114.829 263.232 129.214C262.493 145.639 271.852 159.653 287.922 164.49C295.556 166.792 303.668 167.951 311.641 168.538C324.158 169.46 329.132 176.972 332.222 184.264C334.134 188.776 336.253 192.797 336.253 205.375C336.253 217.952 333.821 222.109 331.343 226.327C327.387 233.002 322.508 237.374 307.885 238.456C299.912 239.043 291.785 240.202 284.166 242.504C268.097 247.356 258.738 261.355 259.477 277.779C260.123 292.164 271.791 306.179 285.813 309.393C302.421 313.209 318.952 306.534 326.017 291.686C329.727 283.898 331.759 275.076 333.206 266.485C335.807 251.095 341.902 245.115 357.187 243.447C367.084 242.365 377.327 243.447 386.601 238.178C396.402 231.017 405.157 220.27 405.157 205.375C405.157 190.48 395.722 174.863 381.392 170.351Z" fill="#199AFC"/>
<path d="M121.186 154.521C94.0635 127.399 94.0635 83.4612 121.186 56.3391L23.1844 154.521C-3.93776 181.462 -3.93776 225.4 23.1844 252.522L121.186 350.524C148.308 377.646 192.065 377.646 219.187 350.524C246.309 323.402 246.309 279.645 219.187 252.522L121.186 154.521Z" fill="#199AFC"/>
<path d="M121.188 154.523L170.188 203.523L219.189 154.523C246.311 127.401 246.311 83.4629 219.189 56.3408C192.067 29.3995 148.31 29.3995 121.188 56.3408C94.0657 83.4629 94.0657 127.401 121.188 154.523Z" fill="url(#paint0_linear_126_136)"/>
<path d="M284.582 221.495C274.674 221.551 266.542 213.522 266.486 203.635C266.43 193.708 274.444 185.56 284.313 185.504C294.221 185.449 302.354 193.478 302.41 203.365C302.465 213.284 294.451 221.44 284.582 221.495Z" fill="#199AFC"/>
<defs>
<linearGradient id="paint0_linear_126_136" x1="195.822" y1="86.3323" x2="116.466" y2="176.13" gradientUnits="userSpaceOnUse">
<stop stop-color="#199AFC"/>
<stop offset="1" stop-color="#1D5682"/>
</linearGradient>
</defs>
</svg>
