<svg width="460" height="460" viewBox="0 0 460 460" fill="none" xmlns="http://www.w3.org/2000/svg">
<rect width="460" height="460" rx="24" fill="#00A76F"/>
<g clip-path="url(#clip0_44_26)">
<path d="M232.493 25C233.461 25.3416 233.461 25.3416 234.448 25.6902C236.944 26.5834 239.416 27.528 241.89 28.4805C243.306 29.0206 243.306 29.0206 244.751 29.5716C247.898 30.7729 251.042 31.9801 254.186 33.1875C256.421 34.0427 258.656 34.8977 260.892 35.7525C279.811 42.994 298.702 50.3104 317.59 57.6343C336.85 65.1004 356.135 72.4972 375.434 79.8609C380.617 81.8387 385.796 83.8272 390.974 85.8184C394.212 87.0567 397.456 88.2774 400.701 89.4976C402.818 90.304 404.936 91.1108 407.053 91.918C408.041 92.2848 409.029 92.6517 410.048 93.0296C411.399 93.549 411.399 93.549 412.777 94.0789C413.969 94.5284 413.969 94.5284 415.185 94.987C417.003 96 417.003 96 418 99C417.007 102.137 417.007 102.137 415.569 105.688C414.861 107.457 414.861 107.457 414.139 109.262C413.768 110.165 413.396 111.069 413.013 112C406.691 109.943 400.461 107.698 394.251 105.324C393.312 104.967 392.373 104.61 391.406 104.242C388.302 103.059 385.199 101.873 382.095 100.688C381.012 100.274 379.928 99.8604 378.811 99.4343C354 89.9675 329.24 80.3706 304.479 70.7739C293.741 66.6126 283.003 62.4523 272.262 58.3013C270.057 57.4488 267.853 56.5954 265.649 55.741C264.609 55.338 263.569 54.935 262.498 54.5198C261.489 54.1278 260.479 53.7358 259.439 53.3319C257.475 52.5772 255.506 51.8343 253.533 51.104C249.261 49.5199 245.156 47.9063 241.135 45.7534C234.688 42.4877 229.938 41.2834 222.86 43.4033C216.041 45.8681 209.545 48.9993 203.009 52.125C200.547 53.2589 198.076 54.3742 195.605 55.4883C191.124 57.5141 186.652 59.5571 182.189 61.6239C170.947 66.8277 159.563 71.6902 148.163 76.5366C142.427 78.9792 136.701 81.446 130.974 83.9102C128.656 84.9066 126.338 85.9028 124.019 86.8989C122.847 87.4028 121.674 87.9066 120.466 88.4256C115.293 90.6478 110.12 92.869 104.947 95.0902C100.363 97.0585 95.7784 99.0273 91.1943 100.996C88.0535 102.345 84.9127 103.694 81.7716 105.042C78.3136 106.526 74.8559 108.011 71.3983 109.496C69.8474 110.161 69.8474 110.161 68.2652 110.84C67.3252 111.244 66.3852 111.648 65.4167 112.064C64.5974 112.416 63.7781 112.768 62.9339 113.13C61.5918 113.718 60.265 114.343 58.9549 115C58.6257 190.9 58.2966 266.8 57.9575 345C62.4007 346.485 62.4007 346.485 66.9336 348C68.6978 348.694 70.4531 349.411 72.1933 350.163C73.1328 350.567 74.0722 350.97 75.0402 351.386C76.5371 352.036 76.5371 352.036 78.0642 352.699C79.1388 353.162 80.2134 353.625 81.3205 354.102C84.8583 355.627 88.394 357.157 91.9297 358.688C94.4286 359.766 96.928 360.844 99.4275 361.921C103.969 363.879 108.509 365.838 113.049 367.799C121.088 371.27 129.131 374.731 137.177 378.188C138.338 378.687 139.5 379.186 140.697 379.7C146.485 382.187 152.274 384.671 158.064 387.151C168.481 391.616 178.888 396.098 189.258 400.668C193.798 402.667 198.343 404.655 202.889 406.641C205.026 407.58 207.161 408.524 209.293 409.475C212.222 410.781 215.159 412.067 218.098 413.348C218.953 413.736 219.809 414.124 220.69 414.524C229.223 418.194 235.317 415.933 243.6 412.668C244.489 412.325 245.378 411.981 246.293 411.628C249.238 410.488 252.179 409.338 255.121 408.188C257.215 407.375 259.311 406.563 261.406 405.751C265.821 404.041 270.234 402.327 274.647 400.61C281.151 398.08 287.661 395.567 294.173 393.059C295.227 392.653 296.281 392.247 297.366 391.829C299.501 391.007 301.635 390.185 303.769 389.363C309.175 387.281 314.579 385.195 319.983 383.109C332.474 378.289 344.966 373.472 357.458 368.655C361.652 367.037 365.846 365.42 370.04 363.803C372.018 363.04 373.995 362.278 375.973 361.517C381.419 359.419 386.86 357.311 392.298 355.192C393.491 354.729 394.684 354.265 395.913 353.788C398.23 352.887 400.546 351.984 402.86 351.078C404.417 350.474 404.417 350.474 406.006 349.858C406.927 349.499 407.848 349.139 408.797 348.769C411.018 348 411.019 348 413.013 348C413.879 349.91 414.728 351.829 415.569 353.75C416.043 354.817 416.518 355.885 417.007 356.984C418.037 360.113 418.226 361.044 417.003 364C415.372 365.054 415.372 365.054 413.214 365.849C412.397 366.159 411.58 366.469 410.738 366.788C409.833 367.114 408.928 367.439 407.995 367.773C406.57 368.307 406.57 368.307 405.117 368.852C403.037 369.629 400.955 370.399 398.87 371.162C394.347 372.819 389.836 374.511 385.325 376.2C382.933 377.095 380.54 377.988 378.147 378.879C366.186 383.335 354.282 387.935 342.385 392.559C336.436 394.87 330.485 397.175 324.534 399.48C323.357 399.937 322.18 400.393 320.967 400.863C308.125 405.84 295.274 410.796 282.423 415.75C281.39 416.148 280.356 416.547 279.291 416.957C278.288 417.344 277.286 417.73 276.252 418.129C275.264 418.51 274.275 418.892 273.256 419.285C271.304 420.037 269.35 420.786 267.395 421.533C262.065 423.573 256.763 425.67 251.481 427.834C249.739 428.536 249.739 428.536 247.962 429.252C245.728 430.153 243.501 431.069 241.281 432.003C232.608 435.47 227.136 435.551 218.501 432.14C216.652 431.332 214.809 430.512 212.971 429.68C211.958 429.234 210.945 428.787 209.901 428.328C207.709 427.361 205.52 426.389 203.334 425.412C198.004 423.031 192.66 420.684 187.317 418.333C185.457 417.514 183.599 416.693 181.74 415.873C169.178 410.327 156.552 404.937 143.916 399.563C139.468 397.668 135.021 395.771 130.573 393.875C129.462 393.401 128.351 392.928 127.206 392.44C114.893 387.19 102.591 381.917 90.2928 376.635C87.8921 375.604 85.4913 374.574 83.0902 373.544C72.1837 368.866 61.2806 364.18 50.4307 359.371C49.6811 359.04 48.9316 358.71 48.1593 358.369C43.117 356.12 43.117 356.12 41.9999 355C41.9039 353.655 41.8766 352.305 41.8772 350.957C41.8752 350.081 41.8733 349.204 41.8712 348.301C41.8741 347.328 41.877 346.354 41.88 345.351C41.8792 344.325 41.8783 343.299 41.8774 342.242C41.8758 338.777 41.8813 335.311 41.8867 331.845C41.887 329.372 41.8868 326.899 41.8863 324.426C41.8861 319.088 41.8889 313.749 41.8945 308.41C41.9026 300.691 41.9052 292.972 41.9065 285.253C41.9086 272.731 41.9153 260.208 41.9247 247.686C41.9339 235.518 41.9409 223.351 41.9452 211.184C41.9454 210.434 41.9457 209.685 41.946 208.913C41.9473 205.153 41.9485 201.393 41.9498 197.634C41.9601 166.422 41.9778 135.211 41.9999 104C45.6066 102.388 49.2137 100.777 52.8212 99.1675C54.6351 98.3578 56.4486 97.5472 58.2621 96.7367C69.0534 91.9222 79.9052 87.2585 90.7805 82.6386C96.5965 80.1677 102.409 77.6888 108.222 75.211C109.422 74.6998 110.622 74.1887 111.858 73.662C123.757 68.59 135.644 63.4871 147.528 58.3771C151.005 56.8824 154.484 55.3898 157.963 53.8977C168.429 49.4065 178.887 44.8997 189.319 40.328C193.877 38.3315 198.438 36.3443 203.001 34.3577C205.15 33.4184 207.298 32.4743 209.443 31.5251C212.388 30.2223 215.339 28.9357 218.293 27.6524C219.159 27.2641 220.024 26.8759 220.916 26.4759C228.157 23.3625 228.157 23.3625 232.493 25Z" fill="white"/>
<path d="M182.53 138.482C183.899 138.477 185.269 138.47 186.638 138.461C190.328 138.443 194.019 138.45 197.71 138.463C201.59 138.473 205.47 138.463 209.35 138.457C215.865 138.45 222.38 138.459 228.895 138.479C236.403 138.5 243.91 138.493 251.418 138.471C257.888 138.453 264.359 138.451 270.829 138.461C274.683 138.467 278.537 138.468 282.391 138.455C286.017 138.443 289.642 138.451 293.268 138.474C295.215 138.482 297.163 138.47 299.111 138.458C310.826 138.57 319.554 141.284 328.071 149.484C332.791 154.975 336.269 161.872 336.422 169.196C336.442 170.037 336.462 170.877 336.483 171.743C336.508 173.098 336.508 173.098 336.533 174.48C336.554 175.408 336.575 176.336 336.596 177.293C336.661 180.257 336.72 183.222 336.779 186.188C336.822 188.197 336.865 190.207 336.909 192.217C337.016 197.144 337.117 202.072 337.215 207C340.852 204.69 344.488 202.376 348.123 200.063C349.161 199.403 350.2 198.744 351.269 198.064C352.749 197.122 352.749 197.122 354.259 196.16C355.173 195.579 356.087 194.998 357.029 194.399C359.053 193.171 359.053 193.171 360.154 192C360.276 190.497 360.331 188.988 360.359 187.48C360.379 186.519 360.398 185.558 360.419 184.568C360.436 183.524 360.452 182.479 360.469 181.402C360.5 179.806 360.501 179.806 360.532 178.178C360.598 174.765 360.656 171.351 360.715 167.938C360.758 165.63 360.801 163.322 360.845 161.014C360.952 155.343 361.054 149.671 361.151 144C363.126 144 365.101 144 367.135 144C367.568 151.202 367.863 158.401 368.067 165.613C368.152 168.061 368.267 170.508 368.414 172.953C369.575 192.726 369.575 192.726 365.528 198.157C361.584 201.71 357.161 203.95 352.313 206.02C349.008 207.539 346.217 209.571 343.261 211.688C338.448 215 338.448 215 336.217 215C336.217 218.96 336.217 222.92 336.217 227C348.724 227 361.231 227 374.117 227C374.117 228.65 374.117 230.3 374.117 232C361.61 232 349.103 232 336.217 232C336.079 242.989 336.079 242.989 339.369 246.938C340.325 247.618 341.28 248.299 342.264 249C343.293 249.771 344.322 250.542 345.383 251.337C347.938 253.202 350.508 254.736 353.314 256.19C358.808 259.269 364.038 262.422 365.98 268.724C367.144 276.548 366.595 284.386 366.138 292.25C366.058 294.652 365.985 297.054 365.92 299.457C365.745 305.31 365.479 311.154 365.141 317C363.495 317 361.849 317 360.154 317C360.17 316.433 360.186 315.867 360.203 315.283C360.361 309.344 360.426 303.41 360.44 297.469C360.457 295.257 360.497 293.046 360.561 290.835C361.51 277.837 361.51 277.837 356.497 266.507C353.337 263.819 349.835 261.955 346.191 260C344.397 258.662 342.626 257.291 340.893 255.875C340.176 255.316 339.46 254.756 338.723 254.18C337.976 253.596 337.976 253.596 337.215 253C337.201 254.83 337.201 254.83 337.187 256.697C337.147 261.263 337.081 265.829 337.008 270.395C336.98 272.364 336.959 274.332 336.945 276.301C336.923 279.147 336.876 281.991 336.825 284.836C336.824 285.703 336.823 286.57 336.822 287.463C336.581 297.737 332.758 305.418 325.757 312.797C319.275 318.498 312.106 321.111 303.582 321.147C302.418 321.154 301.253 321.161 300.054 321.169C298.78 321.172 297.506 321.174 296.193 321.177C294.834 321.183 293.476 321.19 292.118 321.197C287.659 321.218 283.2 321.228 278.741 321.238C277.203 321.242 275.664 321.246 274.126 321.251C266.894 321.27 259.662 321.284 252.429 321.292C244.101 321.302 235.772 321.328 227.443 321.369C220.994 321.399 214.545 321.414 208.095 321.417C204.249 321.419 200.403 321.428 196.557 321.454C192.933 321.477 189.309 321.481 185.685 321.471C183.737 321.47 181.79 321.489 179.842 321.509C169.728 321.449 160.561 319.417 152.558 312.895C143.763 303.872 141.478 293.969 141.322 281.813C141.302 280.869 141.283 279.926 141.263 278.955C141.204 275.97 141.158 272.985 141.111 270C141.073 267.965 141.034 265.93 140.995 263.895C140.899 258.93 140.815 253.965 140.737 249C132.321 251.374 123.366 254.814 117.889 261.962C110.762 275.314 114.76 297.418 115.804 312C113.829 312 111.854 312 109.82 312C109.744 304.792 109.691 297.584 109.655 290.375C109.64 287.922 109.62 285.469 109.594 283.016C109.558 279.494 109.541 275.972 109.527 272.449C109.512 271.349 109.497 270.249 109.481 269.116C109.48 268.095 109.48 267.074 109.48 266.022C109.473 265.123 109.467 264.224 109.46 263.297C109.897 260.506 110.619 259.716 112.812 258C114.907 256.724 117.034 255.498 119.178 254.305C120.437 253.582 121.695 252.858 122.953 252.133C124.925 250.998 126.901 249.874 128.895 248.777C130.827 247.711 132.732 246.606 134.636 245.492C135.782 244.846 136.928 244.2 138.108 243.535C141.755 240.56 141.755 240.56 141.735 232C129.557 232 117.38 232 104.833 232C104.833 230.02 104.833 228.04 104.833 226C117.01 226 129.188 226 141.735 226C141.679 217.533 141.679 217.533 138.365 214.355C137.317 213.64 136.269 212.925 135.19 212.188C134.379 211.603 134.379 211.603 133.552 211.006C130.323 208.685 127.124 206.619 123.592 204.791C118.11 201.716 112.911 198.567 110.977 192.277C109.813 184.452 110.36 176.615 110.817 168.75C110.897 166.348 110.97 163.946 111.035 161.543C111.21 155.69 111.476 149.846 111.814 144C113.789 144 115.764 144 117.798 144C117.787 144.569 117.775 145.138 117.762 145.724C117.649 151.679 117.614 157.63 117.622 163.586C117.615 165.804 117.589 168.023 117.542 170.24C116.861 182.794 116.861 182.794 120.932 194.231C123.754 196.574 126.544 198.261 129.767 200C131.841 201.497 133.899 203.017 135.938 204.563C137.535 205.712 139.134 206.859 140.737 208C140.752 206.841 140.766 205.681 140.781 204.487C140.84 200.144 140.917 195.802 140.999 191.459C141.032 189.588 141.06 187.716 141.083 185.844C141.255 172.077 141.421 160.005 150.711 149C159.881 140.122 170.194 138.403 182.53 138.482ZM152.706 156C149.142 161.429 147.603 166.641 147.572 173.121C147.565 174.156 147.558 175.19 147.55 176.256C147.548 177.385 147.545 178.515 147.542 179.678C147.536 180.872 147.529 182.066 147.522 183.296C147.503 187.252 147.491 191.208 147.481 195.164C147.477 196.53 147.473 197.895 147.469 199.261C147.45 205.68 147.436 212.099 147.427 218.518C147.418 225.908 147.391 233.299 147.351 240.689C147.321 246.413 147.306 252.137 147.303 257.862C147.301 261.275 147.292 264.688 147.267 268.101C147.242 271.916 147.243 275.73 147.25 279.545C147.237 280.663 147.225 281.78 147.211 282.931C147.272 292.08 149.34 300.596 155.77 307.412C164.239 314.407 172.926 315.876 183.587 315.745C184.938 315.75 186.29 315.757 187.641 315.767C191.274 315.785 194.906 315.767 198.539 315.74C202.361 315.717 206.183 315.726 210.006 315.73C216.419 315.731 222.832 315.709 229.245 315.672C236.637 315.63 244.029 315.623 251.422 315.635C258.565 315.647 265.708 315.636 272.851 315.613C275.877 315.604 278.903 315.602 281.929 315.606C285.497 315.61 289.064 315.594 292.632 315.562C294.55 315.55 296.468 315.557 298.386 315.564C306.849 315.461 313.838 314.132 320.844 309.176C330.177 299.43 331.378 289.827 331.391 276.737C331.396 275.611 331.401 274.485 331.406 273.325C331.421 269.607 331.428 265.89 331.433 262.172C331.439 259.581 331.445 256.991 331.451 254.4C331.46 249.663 331.466 244.926 331.469 240.189C331.473 233.239 331.491 226.29 331.52 219.34C331.544 213.3 331.552 207.26 331.553 201.22C331.556 198.661 331.564 196.101 331.578 193.542C331.595 189.955 331.593 186.368 331.586 182.78C331.6 181.207 331.6 181.207 331.614 179.603C331.557 169.363 329.328 159.71 322.255 152C316.337 147.601 311.104 144.881 303.682 144.86C302.515 144.854 301.347 144.848 300.144 144.842C298.862 144.841 297.58 144.84 296.259 144.839C294.895 144.834 293.532 144.829 292.169 144.824C288.464 144.811 284.759 144.804 281.053 144.8C278.737 144.797 276.421 144.793 274.104 144.788C266.852 144.775 259.6 144.765 252.349 144.761C243.986 144.757 235.623 144.739 227.26 144.71C220.792 144.688 214.323 144.678 207.854 144.677C203.993 144.676 200.132 144.67 196.271 144.652C192.636 144.636 189 144.634 185.365 144.642C183.404 144.644 181.442 144.63 179.481 144.616C167.963 144.67 160.578 147.283 152.706 156Z" fill="white"/>
<path d="M241.89 48.4804C242.834 48.8405 243.779 49.2007 244.752 49.5717C247.898 50.7729 251.042 51.9801 254.186 53.1875C256.419 54.0419 258.652 54.8962 260.885 55.7502C283.449 64.3875 305.975 73.1204 328.502 81.854C336.876 85.0993 345.255 88.3323 353.636 91.5586C354.805 92.0089 355.975 92.4592 357.18 92.9231C361.672 94.6525 366.163 96.3817 370.656 98.1081C384.155 103.295 397.612 108.576 411.018 114C410.644 116.437 410.644 116.437 410.021 119C408.026 120 408.026 120 406.167 119.496C405.406 119.198 404.646 118.901 403.862 118.595C402.989 118.258 402.117 117.921 401.217 117.575C400.258 117.195 399.299 116.816 398.31 116.426C397.304 116.035 396.297 115.644 395.26 115.242C391.908 113.939 388.56 112.626 385.212 111.312C382.858 110.396 380.504 109.48 378.149 108.564C373.248 106.659 368.349 104.75 363.451 102.838C353.45 98.9387 343.433 95.0819 333.416 91.2255C328.073 89.168 322.731 87.1073 317.389 85.0468C315.793 84.4317 315.793 84.4317 314.166 83.804C307.373 81.1844 300.58 78.5639 293.787 75.943C289.125 74.1441 284.463 72.3455 279.8 70.5468C277.605 69.7 275.41 68.853 273.215 68.0058C272.182 67.6069 271.148 67.2079 270.083 66.7968C269.07 66.4057 268.057 66.0145 267.013 65.6114C265.031 64.8478 263.049 64.0862 261.066 63.327C256.205 61.4647 251.361 59.5706 246.538 57.6113C245.589 57.2324 244.641 56.8534 243.664 56.463C241.882 55.7503 240.105 55.0253 238.334 54.2854C230.407 51.1445 225.046 52.5395 217.394 55.8548C216.495 56.2546 215.596 56.6544 214.67 57.0664C213.22 57.6985 213.22 57.6985 211.74 58.3434C208.536 59.7421 205.336 61.1525 202.137 62.5625C199.869 63.5541 197.601 64.5447 195.332 65.5344C191.768 67.0893 188.204 68.6448 184.641 70.2033C171.551 75.9294 158.42 81.5587 145.288 87.1875C131.743 92.9957 118.202 98.8132 104.693 104.703C103.149 105.375 103.149 105.375 101.574 106.061C96.7516 108.161 91.9312 110.265 87.1146 112.378C85.4225 113.115 83.7303 113.853 82.038 114.59C81.2813 114.924 80.5247 115.258 79.7451 115.602C79.0449 115.906 78.3446 116.21 77.6232 116.523C77.0232 116.786 76.4231 117.049 75.8049 117.32C73.5459 118.133 71.2826 118.547 68.9283 119C68.9335 119.907 68.9386 120.814 68.9439 121.749C69.07 144.019 69.1949 166.29 69.3184 188.56C69.3782 199.331 69.4384 210.101 69.4996 220.872C69.553 230.28 69.6056 239.689 69.6573 249.097C69.6847 254.06 69.7123 259.023 69.741 263.986C69.8887 289.657 69.9565 315.328 69.9257 341C70.7095 341.151 71.4933 341.302 72.3009 341.457C74.6027 341.936 76.4785 342.538 78.6206 343.477C79.3207 343.781 80.0209 344.084 80.7423 344.397C81.499 344.732 82.2557 345.066 83.0353 345.41C83.8496 345.765 84.6639 346.119 85.5028 346.485C87.2851 347.262 89.0664 348.041 90.8468 348.822C95.7811 350.986 100.723 353.134 105.663 355.285C107.244 355.974 107.244 355.974 108.857 356.678C120.277 361.654 131.724 366.567 143.172 371.477C161.966 379.54 180.751 387.624 199.519 395.75C200.893 396.345 200.893 396.345 202.295 396.952C204.87 398.066 207.444 399.181 210.018 400.297C210.754 400.616 211.49 400.934 212.249 401.263C212.948 401.566 213.648 401.87 214.369 402.183C215.05 402.474 215.73 402.765 216.432 403.066C217.918 403.727 219.387 404.427 220.843 405.154C226.512 407.923 229.45 408.366 235.536 406.308C238.038 405.423 240.51 404.478 242.985 403.52C243.928 403.159 244.871 402.799 245.842 402.428C248.979 401.229 252.112 400.021 255.245 398.812C257.474 397.958 259.702 397.104 261.931 396.25C269.077 393.509 276.218 390.756 283.358 388C284.531 387.547 285.703 387.095 286.911 386.629C299.917 381.608 312.918 376.575 325.917 371.535C335.543 367.803 345.174 364.082 354.809 360.371C355.99 359.916 357.171 359.461 358.388 358.992C362.935 357.241 367.482 355.49 372.03 353.741C375.107 352.557 378.185 351.373 381.262 350.187C382.685 349.64 382.685 349.64 384.136 349.082C388.348 347.457 392.551 345.815 396.731 344.109C397.43 343.824 398.13 343.539 398.85 343.245C400.664 342.501 402.474 341.749 404.284 340.996C407.029 340 407.029 340 410.021 340C410.35 341.98 410.679 343.96 411.018 346C386.161 355.682 361.296 365.344 336.404 374.937C335.342 375.347 334.28 375.756 333.185 376.178C322.103 380.45 311.019 384.718 299.935 388.985C296.492 390.311 293.049 391.638 289.606 392.965C285.167 394.675 280.726 396.38 276.285 398.082C267.238 401.553 258.21 405.041 249.281 408.805C247.968 409.351 246.655 409.897 245.342 410.443C243.076 411.394 240.819 412.368 238.575 413.371C237.613 413.773 236.651 414.176 235.661 414.59C234.868 414.939 234.075 415.288 233.258 415.648C226.605 416.496 219.564 412.269 213.594 409.578C212.04 408.887 210.485 408.196 208.93 407.505C208.111 407.139 207.292 406.773 206.448 406.396C188.715 398.479 170.885 390.794 153.017 383.187C148.407 381.224 143.797 379.261 139.187 377.297C138.093 376.831 137 376.365 135.873 375.885C126.271 371.792 116.691 367.648 107.13 363.458C100.706 360.649 94.2578 357.907 87.7844 355.215C85.4735 354.249 83.1628 353.283 80.8521 352.316C78.6393 351.395 76.4219 350.487 74.2041 349.578C72.8647 349.019 71.5256 348.459 70.1867 347.898C69.0035 347.41 67.8203 346.922 66.6013 346.419C63.9416 345 63.9416 345 62.9442 342C62.8502 338.999 62.8143 336.022 62.8243 333.021C62.8234 332.092 62.8226 331.162 62.8217 330.205C62.8201 327.077 62.8256 323.949 62.831 320.822C62.8313 318.585 62.8311 316.348 62.8306 314.111C62.8303 308.027 62.8362 301.942 62.8431 295.858C62.8493 289.504 62.8499 283.15 62.8511 276.795C62.8539 266.127 62.8601 255.458 62.869 244.789C62.8781 233.799 62.8852 222.81 62.8894 211.82C62.8897 211.143 62.89 210.466 62.8902 209.768C62.8915 206.37 62.8928 202.973 62.894 199.575C62.9044 171.383 62.922 143.192 62.9442 115C63.603 114.717 64.2617 114.434 64.9404 114.143C71.2386 111.438 77.5367 108.732 83.8346 106.027C87.0702 104.637 90.3057 103.247 93.5414 101.857C108.12 95.5962 122.696 89.3264 137.247 83C148.09 78.2885 158.942 73.5999 169.805 68.9336C170.425 68.6668 171.046 68.4001 171.686 68.1253C178.512 65.193 185.339 62.2627 192.167 59.334C193.32 58.8388 194.474 58.3436 195.662 57.8334C197.908 56.87 200.154 55.9082 202.401 54.9481C207.151 52.9138 211.888 50.863 216.58 48.6958C217.689 48.1885 217.689 48.1885 218.82 47.6709C220.707 46.8022 222.586 45.9176 224.465 45.0315C230.542 42.9706 236.157 46.273 241.89 48.4804Z" fill="white"/>
<path d="M191.211 147.741C192.358 147.738 193.505 147.734 194.688 147.731C198.469 147.722 202.251 147.728 206.032 147.734C208.667 147.733 211.301 147.731 213.935 147.729C219.452 147.725 224.968 147.73 230.485 147.739C236.85 147.75 243.214 147.747 249.579 147.736C255.719 147.725 261.858 147.727 267.998 147.732C270.603 147.734 273.208 147.732 275.814 147.727C279.456 147.722 283.099 147.73 286.742 147.741C287.815 147.737 288.889 147.733 289.995 147.729C295.492 147.76 300.107 148.154 305.3 150C304.971 151.98 304.641 153.96 304.302 156C303.174 155.758 303.174 155.758 302.024 155.511C296.974 154.815 291.995 154.836 286.902 154.823C285.76 154.816 284.617 154.81 283.44 154.803C279.668 154.783 275.895 154.772 272.122 154.762C270.831 154.758 269.539 154.754 268.209 154.749C262.078 154.731 255.948 154.716 249.818 154.708C242.766 154.698 235.714 154.672 228.662 154.631C222.534 154.597 216.406 154.586 210.277 154.582C207.68 154.577 205.083 154.565 202.485 154.547C198.845 154.522 195.206 154.523 191.566 154.53C190.502 154.517 189.437 154.504 188.34 154.491C179.511 154.552 171.105 156.551 164.674 163C161.304 167.599 159.57 170.938 159.54 176.635C159.533 177.587 159.526 178.538 159.519 179.519C159.516 180.562 159.513 181.604 159.51 182.678C159.501 184.328 159.501 184.328 159.491 186.01C159.471 189.657 159.459 193.303 159.449 196.949C159.445 198.194 159.441 199.439 159.437 200.722C159.418 206.633 159.404 212.543 159.396 218.454C159.386 225.264 159.36 232.075 159.319 238.885C159.285 244.793 159.274 250.701 159.27 256.609C159.265 259.117 159.253 261.625 159.235 264.134C159.21 267.647 159.211 271.161 159.218 274.675C159.199 276.223 159.199 276.223 159.18 277.803C159.231 285.009 160.525 290.622 165.531 295.988C166.153 296.425 166.775 296.862 167.416 297.313C168.028 297.762 168.64 298.212 169.271 298.676C176.732 302.819 182.968 303.439 191.368 303.404C192.52 303.411 193.673 303.418 194.86 303.425C198.655 303.443 202.448 303.439 206.243 303.434C208.221 303.437 210.199 303.44 212.177 303.445C218.392 303.459 224.607 303.457 230.822 303.446C237.21 303.435 243.598 303.449 249.986 303.475C255.492 303.498 260.998 303.504 266.503 303.498C269.783 303.495 273.061 303.499 276.34 303.515C280.002 303.53 283.662 303.519 287.324 303.502C288.394 303.511 289.465 303.521 290.568 303.531C300.228 303.437 307.865 301.076 314.802 294.172C319.288 287.538 319.705 281.032 319.694 273.27C319.704 272.225 319.714 271.18 319.725 270.103C319.755 266.673 319.764 263.243 319.773 259.813C319.79 257.425 319.808 255.037 319.827 252.65C319.875 246.383 319.904 240.116 319.93 233.85C319.96 227.448 320.007 221.046 320.052 214.645C320.137 202.096 320.205 189.548 320.26 177C322.235 177 324.209 177 326.244 177C326.29 190.683 326.326 204.365 326.347 218.048C326.358 224.401 326.372 230.755 326.394 237.108C326.416 243.242 326.428 249.376 326.433 255.51C326.437 257.848 326.444 260.186 326.455 262.523C326.469 265.803 326.471 269.082 326.47 272.361C326.478 273.324 326.485 274.286 326.492 275.278C326.462 285.145 324.52 293.295 317.7 300.695C311.221 306.694 303.138 310.104 294.328 310.147C292.821 310.158 292.821 310.158 291.283 310.169C289.637 310.173 289.637 310.173 287.959 310.177C286.799 310.184 285.639 310.19 284.444 310.197C280.6 310.217 276.757 310.228 272.913 310.238C271.599 310.242 270.285 310.246 268.931 310.251C262.691 310.27 256.45 310.284 250.209 310.292C243.028 310.302 235.847 310.328 228.666 310.369C223.102 310.399 217.537 310.414 211.973 310.417C208.657 310.419 205.34 310.43 202.024 310.454C198.315 310.478 194.606 310.477 190.897 310.47C189.814 310.483 188.731 310.496 187.616 310.509C177.953 310.443 169.094 308.009 161.471 301.844C155.842 296.027 152.601 289.331 152.559 281.258C152.552 280.308 152.545 279.358 152.537 278.379C152.533 276.825 152.533 276.825 152.529 275.24C152.522 274.143 152.516 273.047 152.509 271.917C152.489 268.286 152.478 264.655 152.468 261.023C152.464 259.782 152.46 258.54 152.456 257.261C152.437 251.365 152.422 245.47 152.414 239.574C152.404 232.789 152.378 226.004 152.338 219.219C152.304 213.327 152.292 207.434 152.288 201.542C152.283 199.044 152.272 196.545 152.253 194.047C152.229 190.544 152.23 187.041 152.237 183.537C152.224 182.513 152.211 181.489 152.198 180.434C152.254 172.582 153.929 165.857 158.549 159.414C168.368 150.098 177.933 147.691 191.211 147.741Z" fill="white"/>
<path d="M119.793 123C122.441 123.838 123.402 124.509 125.092 126.688C126.106 130.107 125.65 132.571 124.78 136C122.519 138.616 120.781 139.002 117.424 139.875C113.231 140.02 111.283 139.338 107.825 137C105.842 134.494 105.826 133.217 105.893 130C108.147 122.767 113.162 122.367 119.793 123Z" fill="white"/>
<path d="M116.801 317C120.295 319.431 121.543 320.821 122.411 325C121.535 329.217 120.359 330.574 116.801 333C112.162 333.864 108.271 333.953 104.272 331.313C102.644 328.686 101.916 327.102 101.841 324C105.038 317.107 109.693 315.789 116.801 317Z" fill="white"/>
<path d="M394.064 222C397.241 224.02 397.847 225.393 399.05 228.937C399.05 232 399.05 232 397.243 234.812C394.329 237.734 392.718 238.185 388.703 238.312C385.54 238.261 384.337 238.154 381.597 236.437C379.566 233.128 379.035 230.893 379.103 227C382.735 221.099 387.719 220.85 394.064 222Z" fill="white"/>
<path d="M372.06 127.75C373.504 130.816 373.666 132.644 373.119 136C371.096 139.011 369.605 140.693 365.978 141.449C362.1 141.637 359.616 141.225 356.102 139.5C353.749 136.456 353.497 134.676 353.749 130.902C354.411 127.91 355.662 126.692 358.159 125C363.079 123.133 368.155 124.214 372.06 127.75Z" fill="white"/>
<path d="M366.138 319C369.696 321.426 370.872 322.783 371.748 327C370.88 331.179 369.632 332.569 366.138 335C361.632 335.939 358.231 335.525 354.107 333.5C351.757 330.46 351.486 328.677 351.774 324.906C352.175 323 352.175 323 353.546 320.5C357.648 318.15 361.539 318.143 366.138 319Z" fill="white"/>
<path d="M92.705 220.59C96.1421 221.244 97.7038 222.228 99.8461 225C100.752 228.959 100.424 231.946 98.4748 235.5C94.3735 237.85 90.4821 237.857 85.8833 237C82.3249 234.574 81.1495 233.217 80.2732 229C81.7181 222.046 86.1802 220.164 92.705 220.59Z" fill="white"/>
</g>
<defs>
<clipPath id="clip0_44_26">
<rect width="376" height="412" fill="white" transform="translate(42 24)"/>
</clipPath>
</defs>
</svg>
