<svg width="1535" height="460" viewBox="0 0 1535 460" fill="none" xmlns="http://www.w3.org/2000/svg">
<rect width="460" height="460" rx="24" fill="#00A76F"/>
<g clip-path="url(#clip0_44_40)">
<path d="M232.493 25C233.461 25.3416 233.461 25.3416 234.448 25.6901C236.944 26.5834 239.416 27.5279 241.89 28.4804C243.306 29.0205 243.306 29.0205 244.751 29.5715C247.898 30.7729 251.042 31.9801 254.186 33.1875C256.421 34.0427 258.656 34.8976 260.892 35.7524C279.811 42.994 298.702 50.3103 317.59 57.6342C336.85 65.1003 356.135 72.4972 375.434 79.8608C380.617 81.8386 385.796 83.8271 390.974 85.8184C394.212 87.0567 397.456 88.2774 400.701 89.4975C402.818 90.3039 404.936 91.1107 407.053 91.9179C408.041 92.2848 409.029 92.6516 410.048 93.0296C411.399 93.549 411.399 93.549 412.777 94.0788C413.969 94.5283 413.969 94.5283 415.185 94.9869C417.003 96 417.003 96 418 99C417.007 102.137 417.007 102.137 415.569 105.687C414.861 107.457 414.861 107.457 414.139 109.262C413.768 110.165 413.396 111.069 413.013 112C406.691 109.943 400.461 107.698 394.251 105.324C393.312 104.967 392.373 104.61 391.406 104.242C388.302 103.059 385.199 101.873 382.095 100.687C381.012 100.274 379.928 99.8603 378.811 99.4343C354 89.9674 329.24 80.3705 304.479 70.7739C293.741 66.6125 283.003 62.4522 272.262 58.3012C270.057 57.4487 267.853 56.5953 265.649 55.741C264.609 55.338 263.569 54.935 262.498 54.5197C261.489 54.1277 260.479 53.7357 259.439 53.3319C257.475 52.5772 255.506 51.8343 253.533 51.104C249.261 49.5198 245.156 47.9063 241.135 45.7534C234.688 42.4877 229.938 41.2833 222.86 43.4033C216.041 45.8681 209.545 48.9992 203.009 52.125C200.547 53.2588 198.076 54.3741 195.605 55.4882C191.124 57.5141 186.652 59.5571 182.189 61.6238C170.947 66.8277 159.563 71.6902 148.163 76.5365C142.427 78.9792 136.701 81.4459 130.974 83.9101C128.656 84.9065 126.338 85.9028 124.019 86.8989C122.847 87.4027 121.674 87.9065 120.466 88.4256C115.293 90.6477 110.12 92.869 104.947 95.0901C100.363 97.0585 95.7784 99.0272 91.1943 100.996C88.0535 102.345 84.9127 103.694 81.7716 105.042C78.3136 106.526 74.8559 108.011 71.3983 109.496C69.8474 110.161 69.8474 110.161 68.2652 110.84C67.3252 111.244 66.3852 111.648 65.4167 112.064C64.5974 112.416 63.7781 112.768 62.9339 113.13C61.5918 113.718 60.265 114.343 58.9549 115C58.6257 190.9 58.2966 266.8 57.9575 345C62.4007 346.485 62.4007 346.485 66.9336 348C68.6978 348.694 70.4531 349.411 72.1933 350.163C73.1328 350.567 74.0722 350.97 75.0402 351.386C76.5371 352.036 76.5371 352.036 78.0642 352.699C79.1388 353.162 80.2134 353.625 81.3205 354.102C84.8583 355.627 88.394 357.157 91.9297 358.687C94.4286 359.766 96.928 360.844 99.4275 361.921C103.969 363.879 108.509 365.838 113.049 367.798C121.088 371.27 129.131 374.731 137.177 378.187C138.338 378.687 139.5 379.186 140.697 379.7C146.485 382.187 152.274 384.67 158.064 387.151C168.481 391.615 178.888 396.098 189.258 400.667C193.798 402.667 198.343 404.654 202.889 406.641C205.026 407.58 207.161 408.524 209.293 409.475C212.222 410.781 215.159 412.066 218.098 413.348C218.953 413.736 219.809 414.124 220.69 414.524C229.223 418.194 235.317 415.933 243.6 412.668C244.489 412.325 245.378 411.981 246.293 411.628C249.238 410.488 252.179 409.338 255.121 408.187C257.215 407.375 259.311 406.563 261.406 405.751C265.821 404.041 270.234 402.327 274.647 400.61C281.151 398.08 287.661 395.567 294.173 393.059C295.227 392.653 296.281 392.247 297.366 391.829C299.501 391.007 301.635 390.185 303.769 389.363C309.175 387.281 314.579 385.195 319.983 383.109C332.474 378.289 344.966 373.472 357.458 368.655C361.652 367.037 365.846 365.42 370.04 363.803C372.018 363.04 373.995 362.278 375.973 361.516C381.419 359.419 386.86 357.311 392.298 355.192C393.491 354.729 394.684 354.265 395.913 353.787C398.23 352.887 400.546 351.984 402.86 351.078C404.417 350.474 404.417 350.474 406.006 349.858C406.927 349.499 407.848 349.139 408.797 348.769C411.018 348 411.019 348 413.013 348C413.879 349.91 414.728 351.829 415.569 353.75C416.043 354.817 416.518 355.885 417.007 356.984C418.037 360.113 418.226 361.044 417.003 364C415.372 365.054 415.372 365.054 413.214 365.849C412.397 366.159 411.58 366.469 410.738 366.788C409.833 367.113 408.928 367.439 407.995 367.773C406.57 368.307 406.57 368.307 405.117 368.852C403.037 369.629 400.955 370.399 398.87 371.162C394.347 372.819 389.836 374.511 385.325 376.2C382.933 377.095 380.54 377.988 378.147 378.879C366.186 383.335 354.282 387.935 342.385 392.559C336.436 394.87 330.485 397.175 324.534 399.48C323.357 399.937 322.18 400.393 320.967 400.863C308.125 405.84 295.274 410.796 282.423 415.75C281.39 416.148 280.356 416.547 279.291 416.957C278.288 417.344 277.286 417.73 276.252 418.129C275.264 418.51 274.275 418.892 273.256 419.285C271.304 420.037 269.35 420.786 267.395 421.533C262.065 423.573 256.763 425.67 251.481 427.834C249.739 428.536 249.739 428.536 247.962 429.252C245.728 430.153 243.501 431.069 241.281 432.003C232.608 435.47 227.136 435.55 218.501 432.14C216.652 431.332 214.809 430.511 212.971 429.68C211.958 429.233 210.945 428.787 209.901 428.328C207.709 427.361 205.52 426.389 203.334 425.412C198.004 423.031 192.66 420.684 187.317 418.333C185.457 417.514 183.599 416.693 181.74 415.872C169.178 410.327 156.552 404.937 143.916 399.562C139.468 397.667 135.021 395.771 130.573 393.875C129.462 393.401 128.351 392.928 127.206 392.44C114.893 387.19 102.591 381.916 90.2928 376.635C87.8921 375.604 85.4913 374.574 83.0902 373.544C72.1837 368.865 61.2806 364.18 50.4307 359.371C49.6811 359.04 48.9316 358.709 48.1593 358.369C43.117 356.12 43.117 356.12 41.9999 355C41.9039 353.655 41.8766 352.305 41.8772 350.957C41.8752 350.081 41.8733 349.204 41.8712 348.301C41.8741 347.328 41.877 346.354 41.88 345.351C41.8792 344.325 41.8783 343.299 41.8774 342.242C41.8758 338.777 41.8813 335.311 41.8867 331.845C41.887 329.372 41.8868 326.899 41.8863 324.426C41.8861 319.088 41.8889 313.749 41.8945 308.41C41.9026 300.691 41.9052 292.972 41.9065 285.253C41.9086 272.731 41.9153 260.208 41.9247 247.686C41.9339 235.518 41.9409 223.351 41.9452 211.184C41.9454 210.434 41.9457 209.685 41.946 208.913C41.9473 205.153 41.9485 201.393 41.9498 197.633C41.9601 166.422 41.9778 135.211 41.9999 104C45.6066 102.388 49.2137 100.777 52.8212 99.1674C54.6351 98.3577 56.4486 97.5472 58.2621 96.7366C69.0534 91.9222 79.9052 87.2584 90.7805 82.6386C96.5965 80.1677 102.409 77.6887 108.222 75.2109C109.422 74.6998 110.622 74.1886 111.858 73.662C123.757 68.59 135.644 63.487 147.528 58.377C151.005 56.8823 154.484 55.3897 157.963 53.8977C168.429 49.4064 178.887 44.8997 189.319 40.328C193.877 38.3314 198.438 36.3442 203.001 34.3577C205.15 33.4183 207.298 32.4742 209.443 31.525C212.388 30.2223 215.339 28.9356 218.293 27.6523C219.159 27.2641 220.024 26.8758 220.916 26.4758C228.157 23.3624 228.157 23.3624 232.493 25Z" fill="white"/>
<path d="M182.53 138.482C183.899 138.477 185.269 138.47 186.638 138.461C190.328 138.443 194.019 138.45 197.71 138.463C201.59 138.473 205.47 138.463 209.35 138.457C215.865 138.45 222.38 138.459 228.895 138.479C236.403 138.5 243.91 138.493 251.418 138.471C257.888 138.453 264.359 138.451 270.829 138.461C274.683 138.467 278.537 138.468 282.391 138.455C286.017 138.443 289.642 138.451 293.268 138.474C295.215 138.482 297.163 138.47 299.111 138.458C310.826 138.57 319.554 141.284 328.071 149.484C332.791 154.975 336.269 161.872 336.422 169.196C336.442 170.037 336.462 170.877 336.483 171.743C336.508 173.098 336.508 173.098 336.533 174.48C336.554 175.408 336.575 176.336 336.596 177.293C336.661 180.257 336.72 183.222 336.779 186.188C336.822 188.197 336.865 190.207 336.909 192.217C337.016 197.144 337.117 202.072 337.215 207C340.852 204.69 344.488 202.376 348.123 200.063C349.161 199.403 350.2 198.744 351.269 198.064C352.749 197.122 352.749 197.122 354.259 196.16C355.173 195.579 356.087 194.998 357.029 194.399C359.053 193.171 359.053 193.171 360.154 192C360.276 190.497 360.331 188.988 360.359 187.48C360.379 186.519 360.398 185.558 360.419 184.568C360.436 183.524 360.452 182.479 360.469 181.402C360.5 179.806 360.501 179.806 360.532 178.178C360.598 174.765 360.656 171.351 360.715 167.938C360.758 165.63 360.801 163.322 360.845 161.014C360.952 155.343 361.054 149.671 361.151 144C363.126 144 365.101 144 367.135 144C367.568 151.202 367.863 158.401 368.067 165.613C368.152 168.061 368.267 170.508 368.414 172.953C369.575 192.726 369.575 192.726 365.528 198.157C361.584 201.71 357.161 203.95 352.313 206.02C349.008 207.539 346.217 209.571 343.261 211.688C338.448 215 338.448 215 336.217 215C336.217 218.96 336.217 222.92 336.217 227C348.724 227 361.231 227 374.117 227C374.117 228.65 374.117 230.3 374.117 232C361.61 232 349.103 232 336.217 232C336.079 242.989 336.079 242.989 339.369 246.938C340.325 247.618 341.28 248.299 342.264 249C343.293 249.771 344.322 250.542 345.383 251.337C347.938 253.202 350.508 254.736 353.314 256.19C358.808 259.269 364.038 262.422 365.98 268.724C367.144 276.548 366.595 284.386 366.138 292.25C366.058 294.652 365.985 297.054 365.92 299.457C365.745 305.31 365.479 311.154 365.141 317C363.495 317 361.849 317 360.154 317C360.17 316.433 360.186 315.867 360.203 315.283C360.361 309.344 360.426 303.41 360.44 297.469C360.457 295.257 360.497 293.046 360.561 290.835C361.51 277.837 361.51 277.837 356.497 266.507C353.337 263.819 349.835 261.955 346.191 260C344.397 258.662 342.626 257.291 340.893 255.875C340.176 255.316 339.46 254.756 338.723 254.18C337.976 253.596 337.976 253.596 337.215 253C337.201 254.83 337.201 254.83 337.187 256.697C337.147 261.263 337.081 265.829 337.008 270.395C336.98 272.364 336.959 274.332 336.945 276.301C336.923 279.147 336.876 281.991 336.825 284.836C336.824 285.703 336.823 286.57 336.822 287.463C336.581 297.737 332.758 305.418 325.757 312.797C319.275 318.498 312.106 321.111 303.582 321.147C302.418 321.154 301.253 321.161 300.054 321.169C298.78 321.172 297.506 321.174 296.193 321.177C294.834 321.183 293.476 321.19 292.118 321.197C287.659 321.218 283.2 321.228 278.741 321.238C277.203 321.242 275.664 321.246 274.126 321.251C266.894 321.27 259.662 321.284 252.429 321.292C244.101 321.302 235.772 321.328 227.443 321.369C220.994 321.399 214.545 321.414 208.095 321.417C204.249 321.419 200.403 321.428 196.557 321.454C192.933 321.477 189.309 321.481 185.685 321.471C183.737 321.47 181.79 321.489 179.842 321.509C169.728 321.449 160.561 319.417 152.558 312.895C143.763 303.872 141.478 293.969 141.322 281.813C141.302 280.869 141.283 279.926 141.263 278.955C141.204 275.97 141.158 272.985 141.111 270C141.073 267.965 141.034 265.93 140.995 263.895C140.899 258.93 140.815 253.965 140.737 249C132.321 251.374 123.366 254.814 117.889 261.962C110.762 275.314 114.76 297.418 115.804 312C113.829 312 111.854 312 109.82 312C109.744 304.792 109.691 297.584 109.655 290.375C109.64 287.922 109.62 285.469 109.594 283.016C109.558 279.494 109.541 275.972 109.527 272.449C109.512 271.349 109.497 270.249 109.481 269.116C109.48 268.095 109.48 267.074 109.48 266.022C109.473 265.123 109.467 264.224 109.46 263.297C109.897 260.506 110.619 259.716 112.812 258C114.907 256.724 117.034 255.498 119.178 254.305C120.437 253.582 121.695 252.858 122.953 252.133C124.925 250.998 126.901 249.874 128.895 248.777C130.827 247.711 132.732 246.606 134.636 245.492C135.782 244.846 136.928 244.2 138.108 243.535C141.755 240.56 141.755 240.56 141.735 232C129.557 232 117.38 232 104.833 232C104.833 230.02 104.833 228.04 104.833 226C117.01 226 129.188 226 141.735 226C141.679 217.533 141.679 217.533 138.365 214.355C137.317 213.64 136.269 212.925 135.19 212.188C134.379 211.603 134.379 211.603 133.552 211.006C130.323 208.685 127.124 206.619 123.592 204.791C118.11 201.716 112.911 198.567 110.977 192.277C109.813 184.452 110.36 176.615 110.817 168.75C110.897 166.348 110.97 163.946 111.035 161.543C111.21 155.69 111.476 149.846 111.814 144C113.789 144 115.764 144 117.798 144C117.787 144.569 117.775 145.138 117.762 145.724C117.649 151.679 117.614 157.63 117.622 163.586C117.615 165.804 117.589 168.023 117.542 170.24C116.861 182.794 116.861 182.794 120.932 194.231C123.754 196.574 126.544 198.261 129.767 200C131.841 201.497 133.899 203.017 135.938 204.563C137.535 205.712 139.134 206.859 140.737 208C140.752 206.841 140.766 205.681 140.781 204.487C140.84 200.144 140.917 195.802 140.999 191.459C141.032 189.588 141.06 187.716 141.083 185.844C141.255 172.077 141.421 160.005 150.711 149C159.881 140.122 170.194 138.403 182.53 138.482ZM152.706 156C149.142 161.429 147.603 166.641 147.572 173.121C147.565 174.156 147.558 175.19 147.55 176.256C147.548 177.385 147.545 178.515 147.542 179.678C147.536 180.872 147.529 182.066 147.522 183.296C147.503 187.252 147.491 191.208 147.481 195.164C147.477 196.53 147.473 197.895 147.469 199.261C147.45 205.68 147.436 212.099 147.427 218.518C147.418 225.908 147.391 233.299 147.351 240.689C147.321 246.413 147.306 252.137 147.303 257.862C147.301 261.275 147.292 264.688 147.267 268.101C147.242 271.916 147.243 275.73 147.25 279.545C147.237 280.663 147.225 281.78 147.211 282.931C147.272 292.08 149.34 300.596 155.77 307.412C164.239 314.407 172.926 315.876 183.587 315.745C184.938 315.75 186.29 315.757 187.641 315.767C191.274 315.785 194.906 315.767 198.539 315.74C202.361 315.717 206.183 315.726 210.006 315.73C216.419 315.731 222.832 315.709 229.245 315.672C236.637 315.63 244.029 315.623 251.422 315.635C258.565 315.647 265.708 315.636 272.851 315.613C275.877 315.604 278.903 315.602 281.929 315.606C285.497 315.61 289.064 315.594 292.632 315.562C294.55 315.55 296.468 315.557 298.386 315.564C306.849 315.461 313.838 314.132 320.844 309.176C330.177 299.43 331.378 289.827 331.391 276.737C331.396 275.611 331.401 274.485 331.406 273.325C331.421 269.607 331.428 265.89 331.433 262.172C331.439 259.581 331.445 256.991 331.451 254.4C331.46 249.663 331.466 244.926 331.469 240.189C331.473 233.239 331.491 226.29 331.52 219.34C331.544 213.3 331.552 207.26 331.553 201.22C331.556 198.661 331.564 196.101 331.578 193.542C331.595 189.955 331.593 186.368 331.586 182.78C331.6 181.207 331.6 181.207 331.614 179.603C331.557 169.363 329.328 159.71 322.255 152C316.337 147.601 311.104 144.881 303.682 144.86C302.515 144.854 301.347 144.848 300.144 144.842C298.862 144.841 297.58 144.84 296.259 144.839C294.895 144.834 293.532 144.829 292.169 144.824C288.464 144.811 284.759 144.804 281.053 144.8C278.737 144.797 276.421 144.793 274.104 144.788C266.852 144.775 259.6 144.765 252.349 144.761C243.986 144.757 235.623 144.739 227.26 144.71C220.792 144.688 214.323 144.678 207.854 144.677C203.993 144.676 200.132 144.67 196.271 144.652C192.636 144.636 189 144.634 185.365 144.642C183.404 144.644 181.442 144.63 179.481 144.616C167.963 144.67 160.578 147.283 152.706 156Z" fill="white"/>
<path d="M241.89 48.4804C242.834 48.8405 243.779 49.2007 244.752 49.5717C247.898 50.7729 251.042 51.9801 254.186 53.1875C256.419 54.0419 258.652 54.8962 260.885 55.7502C283.449 64.3875 305.975 73.1204 328.502 81.854C336.876 85.0993 345.255 88.3323 353.636 91.5586C354.805 92.0089 355.975 92.4592 357.18 92.9231C361.672 94.6525 366.163 96.3817 370.656 98.1081C384.155 103.295 397.612 108.576 411.018 114C410.644 116.437 410.644 116.437 410.021 119C408.026 120 408.026 120 406.167 119.496C405.406 119.198 404.646 118.901 403.862 118.595C402.989 118.258 402.117 117.921 401.217 117.575C400.258 117.195 399.299 116.816 398.31 116.426C397.304 116.035 396.297 115.644 395.26 115.242C391.908 113.939 388.56 112.626 385.212 111.312C382.858 110.396 380.504 109.48 378.149 108.564C373.248 106.659 368.349 104.75 363.451 102.838C353.45 98.9387 343.433 95.0819 333.416 91.2255C328.073 89.168 322.731 87.1073 317.389 85.0468C315.793 84.4317 315.793 84.4317 314.166 83.804C307.373 81.1844 300.58 78.5639 293.787 75.943C289.125 74.1441 284.463 72.3455 279.8 70.5468C277.605 69.7 275.41 68.853 273.215 68.0058C272.182 67.6069 271.148 67.2079 270.083 66.7968C269.07 66.4057 268.057 66.0145 267.013 65.6114C265.031 64.8478 263.049 64.0862 261.066 63.327C256.205 61.4647 251.361 59.5706 246.538 57.6113C245.589 57.2324 244.641 56.8534 243.664 56.463C241.882 55.7503 240.105 55.0253 238.334 54.2854C230.407 51.1445 225.046 52.5395 217.394 55.8548C216.495 56.2546 215.596 56.6544 214.67 57.0664C213.22 57.6985 213.22 57.6985 211.74 58.3434C208.536 59.7421 205.336 61.1525 202.137 62.5625C199.869 63.5541 197.601 64.5447 195.332 65.5344C191.768 67.0893 188.204 68.6448 184.641 70.2033C171.551 75.9294 158.42 81.5587 145.288 87.1875C131.743 92.9957 118.202 98.8132 104.693 104.703C103.149 105.375 103.149 105.375 101.574 106.061C96.7516 108.161 91.9312 110.265 87.1146 112.378C85.4225 113.115 83.7303 113.853 82.038 114.59C81.2813 114.924 80.5247 115.258 79.7451 115.602C79.0449 115.906 78.3446 116.21 77.6232 116.523C77.0232 116.786 76.4231 117.049 75.8049 117.32C73.5459 118.133 71.2826 118.547 68.9283 119C68.9335 119.907 68.9386 120.814 68.9439 121.749C69.07 144.019 69.1949 166.29 69.3184 188.56C69.3782 199.331 69.4384 210.101 69.4996 220.872C69.553 230.28 69.6056 239.689 69.6573 249.097C69.6847 254.06 69.7123 259.023 69.741 263.986C69.8887 289.657 69.9565 315.328 69.9257 341C70.7095 341.151 71.4933 341.302 72.3009 341.457C74.6027 341.936 76.4785 342.538 78.6206 343.477C79.3207 343.781 80.0209 344.084 80.7423 344.397C81.499 344.732 82.2557 345.066 83.0353 345.41C83.8496 345.765 84.6639 346.119 85.5028 346.485C87.2851 347.262 89.0664 348.041 90.8468 348.822C95.7811 350.986 100.723 353.134 105.663 355.285C107.244 355.974 107.244 355.974 108.857 356.678C120.277 361.654 131.724 366.567 143.172 371.477C161.966 379.54 180.751 387.624 199.519 395.75C200.893 396.345 200.893 396.345 202.295 396.952C204.87 398.066 207.444 399.181 210.018 400.297C210.754 400.616 211.49 400.934 212.249 401.263C212.948 401.566 213.648 401.87 214.369 402.183C215.05 402.474 215.73 402.765 216.432 403.066C217.918 403.727 219.387 404.427 220.843 405.154C226.512 407.923 229.45 408.366 235.536 406.308C238.038 405.423 240.51 404.478 242.985 403.52C243.928 403.159 244.871 402.799 245.842 402.428C248.979 401.229 252.112 400.021 255.245 398.812C257.474 397.958 259.702 397.104 261.931 396.25C269.077 393.509 276.218 390.756 283.358 388C284.531 387.547 285.703 387.095 286.911 386.629C299.917 381.608 312.918 376.575 325.917 371.535C335.543 367.803 345.174 364.082 354.809 360.371C355.99 359.916 357.171 359.461 358.388 358.992C362.935 357.241 367.482 355.49 372.03 353.741C375.107 352.557 378.185 351.373 381.262 350.187C382.685 349.64 382.685 349.64 384.136 349.082C388.348 347.457 392.551 345.815 396.731 344.109C397.43 343.824 398.13 343.539 398.85 343.245C400.664 342.501 402.474 341.749 404.284 340.996C407.029 340 407.029 340 410.021 340C410.35 341.98 410.679 343.96 411.018 346C386.161 355.682 361.296 365.344 336.404 374.937C335.342 375.347 334.28 375.756 333.185 376.178C322.103 380.45 311.019 384.718 299.935 388.985C296.492 390.311 293.049 391.638 289.606 392.965C285.167 394.675 280.726 396.38 276.285 398.082C267.238 401.553 258.21 405.041 249.281 408.805C247.968 409.351 246.655 409.897 245.342 410.443C243.076 411.394 240.819 412.368 238.575 413.371C237.613 413.773 236.651 414.176 235.661 414.59C234.868 414.939 234.075 415.288 233.258 415.648C226.605 416.496 219.564 412.269 213.594 409.578C212.04 408.887 210.485 408.196 208.93 407.505C208.111 407.139 207.292 406.773 206.448 406.396C188.715 398.479 170.885 390.794 153.017 383.187C148.407 381.224 143.797 379.261 139.187 377.297C138.093 376.831 137 376.365 135.873 375.885C126.271 371.792 116.691 367.648 107.13 363.458C100.706 360.649 94.2578 357.907 87.7844 355.215C85.4735 354.249 83.1628 353.283 80.8521 352.316C78.6393 351.395 76.4219 350.487 74.2041 349.578C72.8647 349.019 71.5256 348.459 70.1867 347.898C69.0035 347.41 67.8203 346.922 66.6013 346.419C63.9416 345 63.9416 345 62.9442 342C62.8502 338.999 62.8143 336.022 62.8243 333.021C62.8234 332.092 62.8226 331.162 62.8217 330.205C62.8201 327.077 62.8256 323.949 62.831 320.822C62.8313 318.585 62.8311 316.348 62.8306 314.111C62.8303 308.027 62.8362 301.942 62.8431 295.858C62.8493 289.504 62.8499 283.15 62.8511 276.795C62.8539 266.127 62.8601 255.458 62.869 244.789C62.8781 233.799 62.8852 222.81 62.8894 211.82C62.8897 211.143 62.89 210.466 62.8902 209.768C62.8915 206.37 62.8928 202.973 62.894 199.575C62.9044 171.383 62.922 143.192 62.9442 115C63.603 114.717 64.2617 114.434 64.9404 114.143C71.2386 111.438 77.5367 108.732 83.8346 106.027C87.0702 104.637 90.3057 103.247 93.5414 101.857C108.12 95.5962 122.696 89.3264 137.247 83C148.09 78.2885 158.942 73.5999 169.805 68.9336C170.425 68.6668 171.046 68.4001 171.686 68.1253C178.512 65.193 185.339 62.2627 192.167 59.334C193.32 58.8388 194.474 58.3436 195.662 57.8334C197.908 56.87 200.154 55.9082 202.401 54.9481C207.151 52.9138 211.888 50.863 216.58 48.6958C217.689 48.1885 217.689 48.1885 218.82 47.6709C220.707 46.8022 222.586 45.9176 224.465 45.0315C230.542 42.9706 236.157 46.273 241.89 48.4804Z" fill="white"/>
<path d="M191.211 147.741C192.358 147.738 193.505 147.734 194.688 147.731C198.469 147.722 202.251 147.728 206.032 147.734C208.667 147.733 211.301 147.731 213.935 147.729C219.452 147.725 224.968 147.73 230.485 147.739C236.85 147.75 243.214 147.747 249.579 147.736C255.719 147.725 261.858 147.727 267.998 147.732C270.603 147.734 273.208 147.732 275.814 147.727C279.456 147.722 283.099 147.73 286.742 147.741C287.815 147.737 288.889 147.733 289.995 147.729C295.492 147.76 300.107 148.154 305.3 150C304.971 151.98 304.641 153.96 304.302 156C303.174 155.758 303.174 155.758 302.024 155.511C296.974 154.815 291.995 154.836 286.902 154.823C285.76 154.816 284.617 154.81 283.44 154.803C279.668 154.783 275.895 154.772 272.122 154.762C270.831 154.758 269.539 154.754 268.209 154.749C262.078 154.731 255.948 154.716 249.818 154.708C242.766 154.698 235.714 154.672 228.662 154.631C222.534 154.597 216.406 154.586 210.277 154.582C207.68 154.577 205.083 154.565 202.485 154.547C198.845 154.522 195.206 154.523 191.566 154.53C190.502 154.517 189.437 154.504 188.34 154.491C179.511 154.552 171.105 156.551 164.674 163C161.304 167.599 159.57 170.938 159.54 176.635C159.533 177.587 159.526 178.538 159.519 179.519C159.516 180.562 159.513 181.604 159.51 182.678C159.501 184.328 159.501 184.328 159.491 186.01C159.471 189.657 159.459 193.303 159.449 196.949C159.445 198.194 159.441 199.439 159.437 200.722C159.418 206.633 159.404 212.543 159.396 218.454C159.386 225.264 159.36 232.075 159.319 238.885C159.285 244.793 159.274 250.701 159.27 256.609C159.265 259.117 159.253 261.625 159.235 264.134C159.21 267.647 159.211 271.161 159.218 274.675C159.199 276.223 159.199 276.223 159.18 277.803C159.231 285.009 160.525 290.622 165.531 295.988C166.153 296.425 166.775 296.862 167.416 297.313C168.028 297.762 168.64 298.212 169.271 298.676C176.732 302.819 182.968 303.439 191.368 303.404C192.52 303.411 193.673 303.418 194.86 303.425C198.655 303.443 202.448 303.439 206.243 303.434C208.221 303.437 210.199 303.44 212.177 303.445C218.392 303.459 224.607 303.457 230.822 303.446C237.21 303.435 243.598 303.449 249.986 303.475C255.492 303.498 260.998 303.504 266.503 303.498C269.783 303.495 273.061 303.499 276.34 303.515C280.002 303.53 283.662 303.519 287.324 303.502C288.394 303.511 289.465 303.521 290.568 303.531C300.228 303.437 307.865 301.076 314.802 294.172C319.288 287.538 319.705 281.032 319.694 273.27C319.704 272.225 319.714 271.18 319.725 270.103C319.755 266.673 319.764 263.243 319.773 259.813C319.79 257.425 319.808 255.037 319.827 252.65C319.875 246.383 319.904 240.116 319.93 233.85C319.96 227.448 320.007 221.046 320.052 214.645C320.137 202.096 320.205 189.548 320.26 177C322.235 177 324.209 177 326.244 177C326.29 190.683 326.326 204.365 326.347 218.048C326.358 224.401 326.372 230.755 326.394 237.108C326.416 243.242 326.428 249.376 326.433 255.51C326.437 257.848 326.444 260.186 326.455 262.523C326.469 265.803 326.471 269.082 326.47 272.361C326.478 273.324 326.485 274.286 326.492 275.278C326.462 285.145 324.52 293.295 317.7 300.695C311.221 306.694 303.138 310.104 294.328 310.147C292.821 310.158 292.821 310.158 291.283 310.169C289.637 310.173 289.637 310.173 287.959 310.177C286.799 310.184 285.639 310.19 284.444 310.197C280.6 310.217 276.757 310.228 272.913 310.238C271.599 310.242 270.285 310.246 268.931 310.251C262.691 310.27 256.45 310.284 250.209 310.292C243.028 310.302 235.847 310.328 228.666 310.369C223.102 310.399 217.537 310.414 211.973 310.417C208.657 310.419 205.34 310.43 202.024 310.454C198.315 310.478 194.606 310.477 190.897 310.47C189.814 310.483 188.731 310.496 187.616 310.509C177.953 310.443 169.094 308.009 161.471 301.844C155.842 296.027 152.601 289.331 152.559 281.258C152.552 280.308 152.545 279.358 152.537 278.379C152.533 276.825 152.533 276.825 152.529 275.24C152.522 274.143 152.516 273.047 152.509 271.917C152.489 268.286 152.478 264.655 152.468 261.023C152.464 259.782 152.46 258.54 152.456 257.261C152.437 251.365 152.422 245.47 152.414 239.574C152.404 232.789 152.378 226.004 152.338 219.219C152.304 213.327 152.292 207.434 152.288 201.542C152.283 199.044 152.272 196.545 152.253 194.047C152.229 190.544 152.23 187.041 152.237 183.537C152.224 182.513 152.211 181.489 152.198 180.434C152.254 172.582 153.929 165.857 158.549 159.414C168.368 150.098 177.933 147.691 191.211 147.741Z" fill="white"/>
<path d="M119.793 123C122.441 123.839 123.402 124.509 125.092 126.688C126.106 130.107 125.65 132.571 124.78 136C122.519 138.616 120.781 139.002 117.424 139.875C113.231 140.02 111.283 139.339 107.825 137C105.842 134.494 105.826 133.217 105.893 130C108.147 122.767 113.162 122.367 119.793 123Z" fill="white"/>
<path d="M116.801 317C120.295 319.431 121.543 320.821 122.411 325C121.535 329.217 120.359 330.574 116.801 333C112.162 333.864 108.271 333.953 104.272 331.313C102.644 328.686 101.916 327.102 101.841 324C105.038 317.107 109.693 315.789 116.801 317Z" fill="white"/>
<path d="M394.064 222C397.241 224.02 397.847 225.393 399.05 228.937C399.05 232 399.05 232 397.243 234.812C394.329 237.734 392.718 238.185 388.703 238.312C385.54 238.261 384.337 238.154 381.597 236.437C379.566 233.128 379.035 230.893 379.103 227C382.735 221.099 387.719 220.85 394.064 222Z" fill="white"/>
<path d="M372.06 127.75C373.504 130.816 373.666 132.644 373.119 136C371.096 139.011 369.605 140.693 365.978 141.449C362.1 141.637 359.616 141.225 356.102 139.5C353.749 136.456 353.497 134.676 353.749 130.902C354.411 127.91 355.662 126.692 358.159 125C363.079 123.133 368.155 124.214 372.06 127.75Z" fill="white"/>
<path d="M366.138 319C369.696 321.426 370.872 322.783 371.748 327C370.88 331.179 369.632 332.569 366.138 335C361.632 335.939 358.231 335.525 354.107 333.5C351.757 330.46 351.486 328.677 351.774 324.906C352.175 323 352.175 323 353.546 320.5C357.648 318.15 361.539 318.143 366.138 319Z" fill="white"/>
<path d="M92.705 220.59C96.1421 221.244 97.7038 222.228 99.8461 225C100.752 228.959 100.424 231.946 98.4748 235.5C94.3735 237.85 90.4821 237.857 85.8833 237C82.3249 234.574 81.1495 233.217 80.2732 229C81.7181 222.046 86.1802 220.164 92.705 220.59Z" fill="white"/>
</g>
<path d="M571.102 161.955H547.068C546.898 159.966 546.443 158.162 545.705 156.543C544.994 154.923 544 153.531 542.722 152.366C541.472 151.173 539.952 150.264 538.162 149.639C536.372 148.986 534.341 148.659 532.068 148.659C528.091 148.659 524.724 149.625 521.969 151.557C519.241 153.489 517.168 156.259 515.747 159.866C514.355 163.474 513.659 167.807 513.659 172.864C513.659 178.205 514.369 182.679 515.79 186.287C517.239 189.866 519.327 192.565 522.054 194.384C524.781 196.173 528.063 197.068 531.898 197.068C534.085 197.068 536.045 196.798 537.778 196.259C539.511 195.69 541.017 194.881 542.295 193.83C543.574 192.778 544.611 191.514 545.406 190.037C546.23 188.531 546.784 186.841 547.068 184.966L571.102 185.136C570.818 188.83 569.781 192.594 567.991 196.429C566.202 200.236 563.659 203.759 560.364 206.997C557.097 210.207 553.048 212.793 548.219 214.753C543.389 216.713 537.778 217.693 531.386 217.693C523.375 217.693 516.188 215.974 509.824 212.537C503.489 209.099 498.474 204.043 494.781 197.366C491.116 190.69 489.284 182.523 489.284 172.864C489.284 163.148 491.159 154.966 494.909 148.318C498.659 141.642 503.716 136.599 510.08 133.19C516.443 129.753 523.545 128.034 531.386 128.034C536.898 128.034 541.969 128.787 546.599 130.293C551.23 131.798 555.293 134 558.787 136.898C562.281 139.767 565.094 143.304 567.224 147.509C569.355 151.713 570.648 156.528 571.102 161.955ZM613.727 217.693C606.624 217.693 600.545 216.287 595.488 213.474C590.431 210.634 586.553 206.685 583.854 201.628C581.156 196.543 579.806 190.648 579.806 183.943C579.806 177.239 581.156 171.358 583.854 166.301C586.553 161.216 590.431 157.267 595.488 154.455C600.545 151.614 606.624 150.193 613.727 150.193C620.829 150.193 626.908 151.614 631.965 154.455C637.022 157.267 640.9 161.216 643.599 166.301C646.298 171.358 647.647 177.239 647.647 183.943C647.647 190.648 646.298 196.543 643.599 201.628C640.9 206.685 637.022 210.634 631.965 213.474C626.908 216.287 620.829 217.693 613.727 217.693ZM613.897 200.307C615.886 200.307 617.604 199.639 619.053 198.304C620.502 196.969 621.624 195.065 622.42 192.594C623.215 190.122 623.613 187.182 623.613 183.773C623.613 180.335 623.215 177.395 622.42 174.952C621.624 172.48 620.502 170.577 619.053 169.241C617.604 167.906 615.886 167.239 613.897 167.239C611.795 167.239 609.991 167.906 608.485 169.241C606.979 170.577 605.829 172.48 605.033 174.952C604.238 177.395 603.84 180.335 603.84 183.773C603.84 187.182 604.238 190.122 605.033 192.594C605.829 195.065 606.979 196.969 608.485 198.304C609.991 199.639 611.795 200.307 613.897 200.307ZM657.192 216.5V151.045H679.522V163.489H680.204C681.567 159.398 683.897 156.159 687.192 153.773C690.488 151.386 694.408 150.193 698.954 150.193C703.556 150.193 707.519 151.415 710.843 153.858C714.167 156.273 716.17 159.483 716.852 163.489H717.533C718.641 159.483 720.999 156.273 724.607 153.858C728.215 151.415 732.448 150.193 737.306 150.193C743.585 150.193 748.67 152.21 752.562 156.244C756.482 160.278 758.442 165.648 758.442 172.352V216.5H734.92V178.318C734.92 175.449 734.195 173.205 732.746 171.585C731.298 169.937 729.352 169.114 726.908 169.114C724.494 169.114 722.576 169.937 721.156 171.585C719.763 173.205 719.067 175.449 719.067 178.318V216.5H696.567V178.318C696.567 175.449 695.843 173.205 694.394 171.585C692.945 169.937 690.999 169.114 688.556 169.114C686.937 169.114 685.545 169.483 684.38 170.222C683.215 170.96 682.306 172.026 681.653 173.418C681.028 174.781 680.715 176.415 680.715 178.318V216.5H657.192ZM770.044 241.045V151.045H793.396V162.466H793.908C794.76 160.25 796.01 158.219 797.658 156.372C799.305 154.497 801.351 153.006 803.794 151.898C806.237 150.761 809.078 150.193 812.317 150.193C816.635 150.193 820.74 151.344 824.632 153.645C828.553 155.946 831.734 159.568 834.178 164.511C836.649 169.455 837.885 175.875 837.885 183.773C837.885 191.33 836.706 197.594 834.348 202.565C832.018 207.537 828.893 211.244 824.973 213.688C821.081 216.131 816.805 217.352 812.146 217.352C809.078 217.352 806.337 216.855 803.922 215.861C801.536 214.838 799.49 213.46 797.786 211.727C796.109 209.966 794.817 207.977 793.908 205.761H793.567V241.045H770.044ZM793.055 183.773C793.055 186.955 793.467 189.71 794.291 192.04C795.143 194.341 796.337 196.131 797.871 197.409C799.433 198.659 801.294 199.284 803.453 199.284C805.612 199.284 807.445 198.673 808.95 197.452C810.484 196.202 811.649 194.426 812.445 192.125C813.268 189.795 813.68 187.011 813.68 183.773C813.68 180.534 813.268 177.764 812.445 175.463C811.649 173.134 810.484 171.358 808.95 170.136C807.445 168.886 805.612 168.261 803.453 168.261C801.294 168.261 799.433 168.886 797.871 170.136C796.337 171.358 795.143 173.134 794.291 175.463C793.467 177.764 793.055 180.534 793.055 183.773ZM879.273 217.693C872.171 217.693 866.092 216.287 861.035 213.474C855.978 210.634 852.1 206.685 849.401 201.628C846.702 196.543 845.353 190.648 845.353 183.943C845.353 177.239 846.702 171.358 849.401 166.301C852.1 161.216 855.978 157.267 861.035 154.455C866.092 151.614 872.171 150.193 879.273 150.193C886.376 150.193 892.455 151.614 897.512 154.455C902.569 157.267 906.447 161.216 909.146 166.301C911.844 171.358 913.194 177.239 913.194 183.943C913.194 190.648 911.844 196.543 909.146 201.628C906.447 206.685 902.569 210.634 897.512 213.474C892.455 216.287 886.376 217.693 879.273 217.693ZM879.444 200.307C881.433 200.307 883.151 199.639 884.6 198.304C886.049 196.969 887.171 195.065 887.967 192.594C888.762 190.122 889.16 187.182 889.16 183.773C889.16 180.335 888.762 177.395 887.967 174.952C887.171 172.48 886.049 170.577 884.6 169.241C883.151 167.906 881.433 167.239 879.444 167.239C877.342 167.239 875.538 167.906 874.032 169.241C872.526 170.577 871.376 172.48 870.58 174.952C869.785 177.395 869.387 180.335 869.387 183.773C869.387 187.182 869.785 190.122 870.58 192.594C871.376 195.065 872.526 196.969 874.032 198.304C875.538 199.639 877.342 200.307 879.444 200.307ZM946.262 179.682V216.5H922.739V151.045H945.069V163.489H945.751C947.171 159.341 949.671 156.088 953.251 153.73C956.859 151.372 961.063 150.193 965.864 150.193C970.495 150.193 974.515 151.259 977.924 153.389C981.362 155.491 984.018 158.389 985.893 162.082C987.796 165.776 988.734 169.994 988.705 174.739V216.5H965.183V179.682C965.211 176.443 964.387 173.901 962.711 172.054C961.063 170.207 958.762 169.284 955.808 169.284C953.876 169.284 952.185 169.71 950.737 170.562C949.316 171.386 948.222 172.58 947.455 174.142C946.688 175.676 946.29 177.523 946.262 179.682ZM1031.68 217.693C1024.69 217.693 1018.67 216.358 1013.61 213.688C1008.58 210.989 1004.71 207.125 1001.98 202.097C999.281 197.04 997.931 190.989 997.931 183.943C997.931 177.182 999.295 171.273 1002.02 166.216C1004.75 161.159 1008.6 157.224 1013.57 154.412C1018.54 151.599 1024.41 150.193 1031.17 150.193C1036.11 150.193 1040.59 150.96 1044.59 152.494C1048.6 154.028 1052.02 156.259 1054.86 159.185C1057.7 162.082 1059.89 165.605 1061.43 169.753C1062.96 173.901 1063.73 178.574 1063.73 183.773V189.227H1005.26V176.273H1042.08C1042.05 174.398 1041.57 172.75 1040.63 171.33C1039.72 169.881 1038.49 168.759 1036.92 167.963C1035.39 167.139 1033.64 166.727 1031.68 166.727C1029.78 166.727 1028.03 167.139 1026.44 167.963C1024.85 168.759 1023.57 169.866 1022.6 171.287C1021.67 172.707 1021.17 174.369 1021.11 176.273V190.25C1021.11 192.352 1021.55 194.227 1022.43 195.875C1023.31 197.523 1024.58 198.815 1026.23 199.753C1027.87 200.69 1029.86 201.159 1032.19 201.159C1033.81 201.159 1035.29 200.932 1036.62 200.477C1037.99 200.023 1039.15 199.369 1040.12 198.517C1041.08 197.636 1041.79 196.585 1042.25 195.364H1063.73C1062.99 199.909 1061.24 203.858 1058.49 207.21C1055.73 210.534 1052.08 213.119 1047.53 214.966C1043.02 216.784 1037.73 217.693 1031.68 217.693ZM1096.85 179.682V216.5H1073.33V151.045H1095.65V163.489H1096.34C1097.76 159.341 1100.26 156.088 1103.84 153.73C1107.44 151.372 1111.65 150.193 1116.45 150.193C1121.08 150.193 1125.1 151.259 1128.51 153.389C1131.95 155.491 1134.6 158.389 1136.48 162.082C1138.38 165.776 1139.32 169.994 1139.29 174.739V216.5H1115.77V179.682C1115.8 176.443 1114.97 173.901 1113.3 172.054C1111.65 170.207 1109.35 169.284 1106.39 169.284C1104.46 169.284 1102.77 169.71 1101.32 170.562C1099.9 171.386 1098.81 172.58 1098.04 174.142C1097.27 175.676 1096.88 177.523 1096.85 179.682ZM1189.94 151.045V168.091H1146.81V151.045H1189.94ZM1155.16 135.364H1178.69V195.449C1178.69 196.358 1178.84 197.125 1179.16 197.75C1179.47 198.347 1179.95 198.801 1180.61 199.114C1181.26 199.398 1182.1 199.54 1183.12 199.54C1183.83 199.54 1184.65 199.455 1185.59 199.284C1186.56 199.114 1187.27 198.972 1187.72 198.858L1191.13 215.392C1190.08 215.705 1188.57 216.088 1186.61 216.543C1184.68 216.997 1182.38 217.295 1179.71 217.438C1174.31 217.722 1169.78 217.168 1166.12 215.776C1162.45 214.355 1159.7 212.125 1157.85 209.085C1156 206.045 1155.11 202.239 1155.16 197.665V135.364ZM1200.6 216.5V129.227H1238.27C1244.75 129.227 1250.42 130.506 1255.27 133.062C1260.13 135.619 1263.91 139.213 1266.61 143.844C1269.31 148.474 1270.66 153.886 1270.66 160.08C1270.66 166.33 1269.27 171.741 1266.48 176.315C1263.73 180.889 1259.85 184.412 1254.85 186.884C1249.88 189.355 1244.07 190.591 1237.42 190.591H1214.92V172.182H1232.65C1235.43 172.182 1237.8 171.699 1239.76 170.733C1241.75 169.739 1243.27 168.332 1244.32 166.514C1245.4 164.696 1245.94 162.551 1245.94 160.08C1245.94 157.58 1245.4 155.449 1244.32 153.688C1243.27 151.898 1241.75 150.534 1239.76 149.597C1237.8 148.631 1235.43 148.148 1232.65 148.148H1224.29V216.5H1200.6ZM1322.14 187.864V151.045H1345.66V216.5H1323.33V204.057H1322.65C1321.23 208.233 1318.74 211.5 1315.19 213.858C1311.64 216.187 1307.42 217.352 1302.53 217.352C1297.96 217.352 1293.95 216.301 1290.52 214.199C1287.11 212.097 1284.45 209.199 1282.55 205.506C1280.67 201.812 1279.72 197.58 1279.69 192.807V151.045H1303.22V187.864C1303.24 191.102 1304.07 193.645 1305.69 195.491C1307.33 197.338 1309.64 198.261 1312.59 198.261C1314.55 198.261 1316.24 197.849 1317.66 197.026C1319.11 196.173 1320.22 194.98 1320.99 193.446C1321.78 191.884 1322.16 190.023 1322.14 187.864ZM1381.14 129.227V216.5H1357.62V129.227H1381.14ZM1452.96 172.352H1431.31C1431.2 171.017 1430.73 169.866 1429.91 168.901C1429.08 167.935 1428.02 167.196 1426.71 166.685C1425.43 166.145 1424.01 165.875 1422.45 165.875C1420.43 165.875 1418.7 166.244 1417.25 166.983C1415.8 167.722 1415.09 168.773 1415.12 170.136C1415.09 171.102 1415.5 171.997 1416.35 172.821C1417.24 173.645 1418.93 174.284 1421.43 174.739L1434.72 177.125C1441.43 178.347 1446.41 180.406 1449.68 183.304C1452.97 186.173 1454.64 190.023 1454.66 194.852C1454.64 199.511 1453.24 203.56 1450.49 206.997C1447.76 210.406 1444.02 213.048 1439.28 214.923C1434.56 216.77 1429.18 217.693 1423.13 217.693C1413.13 217.693 1405.3 215.648 1399.65 211.557C1394.02 207.466 1390.89 202.068 1390.23 195.364H1413.58C1413.9 197.437 1414.92 199.043 1416.65 200.179C1418.41 201.287 1420.63 201.841 1423.3 201.841C1425.46 201.841 1427.24 201.472 1428.63 200.733C1430.05 199.994 1430.77 198.943 1430.8 197.58C1430.77 196.33 1430.15 195.335 1428.93 194.597C1427.73 193.858 1425.86 193.261 1423.3 192.807L1411.71 190.761C1405.03 189.597 1400.03 187.381 1396.71 184.114C1393.39 180.847 1391.74 176.642 1391.77 171.5C1391.74 166.955 1392.93 163.105 1395.35 159.952C1397.79 156.77 1401.27 154.355 1405.79 152.707C1410.33 151.031 1415.72 150.193 1421.94 150.193C1431.4 150.193 1438.85 152.153 1444.31 156.074C1449.79 159.994 1452.68 165.42 1452.96 172.352ZM1495.04 217.693C1488.05 217.693 1482.03 216.358 1476.97 213.688C1471.94 210.989 1468.07 207.125 1465.34 202.097C1462.64 197.04 1461.29 190.989 1461.29 183.943C1461.29 177.182 1462.65 171.273 1465.38 166.216C1468.11 161.159 1471.96 157.224 1476.93 154.412C1481.9 151.599 1487.77 150.193 1494.53 150.193C1499.47 150.193 1503.95 150.96 1507.95 152.494C1511.96 154.028 1515.38 156.259 1518.22 159.185C1521.06 162.082 1523.25 165.605 1524.78 169.753C1526.32 173.901 1527.09 178.574 1527.09 183.773V189.227H1468.62V176.273H1505.44C1505.41 174.398 1504.93 172.75 1503.99 171.33C1503.08 169.881 1501.84 168.759 1500.28 167.963C1498.75 167.139 1497 166.727 1495.04 166.727C1493.14 166.727 1491.39 167.139 1489.8 167.963C1488.21 168.759 1486.93 169.866 1485.96 171.287C1485.03 172.707 1484.53 174.369 1484.47 176.273V190.25C1484.47 192.352 1484.91 194.227 1485.79 195.875C1486.67 197.523 1487.94 198.815 1489.59 199.753C1491.23 200.69 1493.22 201.159 1495.55 201.159C1497.17 201.159 1498.65 200.932 1499.98 200.477C1501.35 200.023 1502.51 199.369 1503.48 198.517C1504.44 197.636 1505.15 196.585 1505.61 195.364H1527.09C1526.35 199.909 1524.6 203.858 1521.84 207.21C1519.09 210.534 1515.44 213.119 1510.89 214.966C1506.38 216.784 1501.09 217.693 1495.04 217.693Z" fill="white"/>
<path d="M499.148 275.955V338.5H491.574V275.955H499.148ZM520.564 310.281V338.5H513.356V291.591H520.319V298.92H520.93C522.03 296.538 523.699 294.625 525.939 293.179C528.178 291.713 531.069 290.98 534.612 290.98C537.788 290.98 540.567 291.632 542.949 292.935C545.332 294.217 547.184 296.172 548.508 298.798C549.831 301.404 550.493 304.703 550.493 308.693V338.5H543.285V309.182C543.285 305.497 542.328 302.626 540.415 300.57C538.501 298.493 535.874 297.455 532.535 297.455C530.235 297.455 528.178 297.953 526.366 298.951C524.575 299.949 523.16 301.404 522.121 303.318C521.083 305.232 520.564 307.553 520.564 310.281ZM570.87 310.281V338.5H563.663V291.591H570.626V298.92H571.237C572.336 296.538 574.006 294.625 576.245 293.179C578.485 291.713 581.376 290.98 584.919 290.98C588.095 290.98 590.874 291.632 593.256 292.935C595.638 294.217 597.491 296.172 598.814 298.798C600.138 301.404 600.799 304.703 600.799 308.693V338.5H593.592V309.182C593.592 305.497 592.635 302.626 590.721 300.57C588.807 298.493 586.181 297.455 582.842 297.455C580.541 297.455 578.485 297.953 576.673 298.951C574.881 299.949 573.466 301.404 572.428 303.318C571.39 305.232 570.87 307.553 570.87 310.281ZM633.026 339.477C628.792 339.477 625.076 338.469 621.879 336.454C618.703 334.438 616.219 331.618 614.428 327.994C612.656 324.37 611.771 320.135 611.771 315.29C611.771 310.403 612.656 306.138 614.428 302.494C616.219 298.849 618.703 296.019 621.879 294.004C625.076 291.988 628.792 290.98 633.026 290.98C637.261 290.98 640.967 291.988 644.143 294.004C647.339 296.019 649.823 298.849 651.595 302.494C653.386 306.138 654.282 310.403 654.282 315.29C654.282 320.135 653.386 324.37 651.595 327.994C649.823 331.618 647.339 334.438 644.143 336.454C640.967 338.469 637.261 339.477 633.026 339.477ZM633.026 333.003C636.243 333.003 638.89 332.178 640.967 330.529C643.044 328.88 644.581 326.712 645.578 324.024C646.576 321.337 647.075 318.425 647.075 315.29C647.075 312.154 646.576 309.233 645.578 306.525C644.581 303.817 643.044 301.628 640.967 299.959C638.89 298.289 636.243 297.455 633.026 297.455C629.81 297.455 627.163 298.289 625.086 299.959C623.009 301.628 621.472 303.817 620.475 306.525C619.477 309.233 618.978 312.154 618.978 315.29C618.978 318.425 619.477 321.337 620.475 324.024C621.472 326.712 623.009 328.88 625.086 330.529C627.163 332.178 629.81 333.003 633.026 333.003ZM701.962 291.591L684.616 338.5H677.286L659.94 291.591H667.758L680.707 328.972H681.195L694.144 291.591H701.962ZM723.852 339.599C720.879 339.599 718.182 339.04 715.759 337.92C713.336 336.78 711.412 335.141 709.987 333.003C708.561 330.845 707.849 328.239 707.849 325.185C707.849 322.497 708.378 320.319 709.437 318.649C710.496 316.959 711.911 315.636 713.682 314.679C715.453 313.722 717.408 313.009 719.546 312.541C721.704 312.053 723.872 311.666 726.051 311.381C728.901 311.014 731.212 310.739 732.983 310.556C734.775 310.353 736.078 310.017 736.892 309.548C737.727 309.08 738.144 308.266 738.144 307.105V306.861C738.144 303.848 737.32 301.506 735.671 299.837C734.042 298.167 731.568 297.332 728.249 297.332C724.809 297.332 722.111 298.086 720.156 299.592C718.202 301.099 716.828 302.707 716.034 304.418L709.193 301.974C710.414 299.124 712.043 296.905 714.079 295.317C716.135 293.708 718.375 292.589 720.798 291.957C723.241 291.306 725.643 290.98 728.005 290.98C729.512 290.98 731.242 291.163 733.197 291.53C735.172 291.876 737.075 292.599 738.908 293.698C740.761 294.798 742.298 296.457 743.519 298.676C744.741 300.895 745.352 303.868 745.352 307.594V338.5H738.144V332.148H737.778C737.289 333.166 736.475 334.255 735.335 335.415C734.195 336.576 732.678 337.563 730.784 338.378C728.891 339.192 726.58 339.599 723.852 339.599ZM724.951 333.125C727.802 333.125 730.204 332.565 732.159 331.445C734.133 330.326 735.62 328.88 736.617 327.109C737.635 325.337 738.144 323.474 738.144 321.52V314.923C737.839 315.29 737.167 315.626 736.129 315.931C735.111 316.216 733.93 316.471 732.586 316.695C731.263 316.898 729.97 317.081 728.708 317.244C727.466 317.387 726.458 317.509 725.684 317.611C723.811 317.855 722.06 318.252 720.431 318.802C718.823 319.331 717.52 320.135 716.522 321.214C715.545 322.273 715.056 323.719 715.056 325.551C715.056 328.055 715.983 329.949 717.835 331.232C719.709 332.494 722.08 333.125 724.951 333.125ZM778.907 291.591V297.699H754.598V291.591H778.907ZM761.683 280.352H768.89V325.062C768.89 327.098 769.185 328.625 769.776 329.643C770.387 330.641 771.16 331.313 772.097 331.659C773.054 331.985 774.062 332.148 775.12 332.148C775.914 332.148 776.566 332.107 777.075 332.026C777.584 331.924 777.991 331.842 778.297 331.781L779.762 338.256C779.274 338.439 778.592 338.622 777.716 338.805C776.841 339.009 775.731 339.111 774.387 339.111C772.351 339.111 770.356 338.673 768.402 337.798C766.467 336.922 764.859 335.589 763.576 333.797C762.314 332.005 761.683 329.745 761.683 327.017V280.352ZM789.749 338.5V291.591H796.956V338.5H789.749ZM793.414 283.773C792.009 283.773 790.797 283.294 789.779 282.337C788.782 281.38 788.283 280.23 788.283 278.886C788.283 277.543 788.782 276.392 789.779 275.435C790.797 274.478 792.009 274 793.414 274C794.819 274 796.02 274.478 797.017 275.435C798.035 276.392 798.544 277.543 798.544 278.886C798.544 280.23 798.035 281.38 797.017 282.337C796.02 283.294 794.819 283.773 793.414 283.773ZM829.214 339.477C824.979 339.477 821.263 338.469 818.067 336.454C814.891 334.438 812.407 331.618 810.615 327.994C808.844 324.37 807.958 320.135 807.958 315.29C807.958 310.403 808.844 306.138 810.615 302.494C812.407 298.849 814.891 296.019 818.067 294.004C821.263 291.988 824.979 290.98 829.214 290.98C833.449 290.98 837.154 291.988 840.33 294.004C843.527 296.019 846.011 298.849 847.782 302.494C849.574 306.138 850.47 310.403 850.47 315.29C850.47 320.135 849.574 324.37 847.782 327.994C846.011 331.618 843.527 334.438 840.33 336.454C837.154 338.469 833.449 339.477 829.214 339.477ZM829.214 333.003C832.431 333.003 835.078 332.178 837.154 330.529C839.231 328.88 840.768 326.712 841.766 324.024C842.763 321.337 843.262 318.425 843.262 315.29C843.262 312.154 842.763 309.233 841.766 306.525C840.768 303.817 839.231 301.628 837.154 299.959C835.078 298.289 832.431 297.455 829.214 297.455C825.997 297.455 823.35 298.289 821.274 299.959C819.197 301.628 817.66 303.817 816.662 306.525C815.664 309.233 815.166 312.154 815.166 315.29C815.166 318.425 815.664 321.337 816.662 324.024C817.66 326.712 819.197 328.88 821.274 330.529C823.35 332.178 825.997 333.003 829.214 333.003ZM868.679 310.281V338.5H861.472V291.591H868.435V298.92H869.045C870.145 296.538 871.814 294.625 874.054 293.179C876.294 291.713 879.185 290.98 882.727 290.98C885.903 290.98 888.683 291.632 891.065 292.935C893.447 294.217 895.299 296.172 896.623 298.798C897.946 301.404 898.608 304.703 898.608 308.693V338.5H891.401V309.182C891.401 305.497 890.444 302.626 888.53 300.57C886.616 298.493 883.99 297.455 880.651 297.455C878.35 297.455 876.294 297.953 874.482 298.951C872.69 299.949 871.275 301.404 870.237 303.318C869.198 305.232 868.679 307.553 868.679 310.281ZM948.304 338.5L931.202 275.955H938.898L951.969 326.895H952.579L965.895 275.955H974.446L987.761 326.895H988.372L1001.44 275.955H1009.14L992.037 338.5H984.219L970.415 288.659H969.926L956.122 338.5H948.304ZM1017.6 338.5V291.591H1024.81V338.5H1017.6ZM1021.26 283.773C1019.86 283.773 1018.65 283.294 1017.63 282.337C1016.63 281.38 1016.13 280.23 1016.13 278.886C1016.13 277.543 1016.63 276.392 1017.63 275.435C1018.65 274.478 1019.86 274 1021.26 274C1022.67 274 1023.87 274.478 1024.87 275.435C1025.89 276.392 1026.39 277.543 1026.39 278.886C1026.39 280.23 1025.89 281.38 1024.87 282.337C1023.87 283.294 1022.67 283.773 1021.26 283.773ZM1058.41 291.591V297.699H1034.1V291.591H1058.41ZM1041.18 280.352H1048.39V325.062C1048.39 327.098 1048.69 328.625 1049.28 329.643C1049.89 330.641 1050.66 331.313 1051.6 331.659C1052.55 331.985 1053.56 332.148 1054.62 332.148C1055.41 332.148 1056.07 332.107 1056.57 332.026C1057.08 331.924 1057.49 331.842 1057.8 331.781L1059.26 338.256C1058.77 338.439 1058.09 338.622 1057.22 338.805C1056.34 339.009 1055.23 339.111 1053.89 339.111C1051.85 339.111 1049.86 338.673 1047.9 337.798C1045.97 336.922 1044.36 335.589 1043.08 333.797C1041.81 332.005 1041.18 329.745 1041.18 327.017V280.352ZM1077.46 310.281V338.5H1070.26V275.955H1077.46V298.92H1078.07C1079.17 296.498 1080.82 294.574 1083.02 293.148C1085.24 291.703 1088.19 290.98 1091.88 290.98C1095.08 290.98 1097.87 291.621 1100.28 292.904C1102.68 294.166 1104.54 296.111 1105.87 298.737C1107.21 301.343 1107.88 304.662 1107.88 308.693V338.5H1100.67V309.182C1100.67 305.456 1099.71 302.575 1097.77 300.539C1095.86 298.483 1093.2 297.455 1089.8 297.455C1087.44 297.455 1085.32 297.953 1083.45 298.951C1081.6 299.949 1080.13 301.404 1079.05 303.318C1077.99 305.232 1077.46 307.553 1077.46 310.281ZM1140.12 339.477C1135.89 339.477 1132.17 338.469 1128.98 336.454C1125.8 334.438 1123.32 331.618 1121.53 327.994C1119.75 324.37 1118.87 320.135 1118.87 315.29C1118.87 310.403 1119.75 306.138 1121.53 302.494C1123.32 298.849 1125.8 296.019 1128.98 294.004C1132.17 291.988 1135.89 290.98 1140.12 290.98C1144.36 290.98 1148.06 291.988 1151.24 294.004C1154.44 296.019 1156.92 298.849 1158.69 302.494C1160.48 306.138 1161.38 310.403 1161.38 315.29C1161.38 320.135 1160.48 324.37 1158.69 327.994C1156.92 331.618 1154.44 334.438 1151.24 336.454C1148.06 338.469 1144.36 339.477 1140.12 339.477ZM1140.12 333.003C1143.34 333.003 1145.99 332.178 1148.06 330.529C1150.14 328.88 1151.68 326.712 1152.68 324.024C1153.67 321.337 1154.17 318.425 1154.17 315.29C1154.17 312.154 1153.67 309.233 1152.68 306.525C1151.68 303.817 1150.14 301.628 1148.06 299.959C1145.99 298.289 1143.34 297.455 1140.12 297.455C1136.91 297.455 1134.26 298.289 1132.18 299.959C1130.11 301.628 1128.57 303.817 1127.57 306.525C1126.57 309.233 1126.08 312.154 1126.08 315.29C1126.08 318.425 1126.57 321.337 1127.57 324.024C1128.57 326.712 1130.11 328.88 1132.18 330.529C1134.26 332.178 1136.91 333.003 1140.12 333.003ZM1201.94 319.321V291.591H1209.15V338.5H1201.94V330.56H1201.46C1200.36 332.942 1198.65 334.968 1196.32 336.637C1194 338.286 1191.07 339.111 1187.53 339.111C1184.6 339.111 1181.99 338.469 1179.71 337.187C1177.43 335.884 1175.64 333.929 1174.34 331.323C1173.03 328.697 1172.38 325.388 1172.38 321.398V291.591H1179.59V320.909C1179.59 324.33 1180.55 327.058 1182.46 329.094C1184.39 331.13 1186.86 332.148 1189.85 332.148C1191.64 332.148 1193.46 331.69 1195.32 330.773C1197.19 329.857 1198.76 328.452 1200.02 326.559C1201.3 324.665 1201.94 322.253 1201.94 319.321ZM1242.75 291.591V297.699H1218.44V291.591H1242.75ZM1225.53 280.352H1232.74V325.062C1232.74 327.098 1233.03 328.625 1233.62 329.643C1234.23 330.641 1235.01 331.313 1235.94 331.659C1236.9 331.985 1237.91 332.148 1238.97 332.148C1239.76 332.148 1240.41 332.107 1240.92 332.026C1241.43 331.924 1241.84 331.842 1242.14 331.781L1243.61 338.256C1243.12 338.439 1242.44 338.622 1241.56 338.805C1240.69 339.009 1239.58 339.111 1238.23 339.111C1236.2 339.111 1234.2 338.673 1232.25 337.798C1230.31 336.922 1228.7 335.589 1227.42 333.797C1226.16 332.005 1225.53 329.745 1225.53 327.017V280.352ZM1278.76 338.5V275.955H1286.33V331.781H1315.41V338.5H1278.76ZM1326.16 338.5V291.591H1333.36V338.5H1326.16ZM1329.82 283.773C1328.42 283.773 1327.21 283.294 1326.19 282.337C1325.19 281.38 1324.69 280.23 1324.69 278.886C1324.69 277.543 1325.19 276.392 1326.19 275.435C1327.21 274.478 1328.42 274 1329.82 274C1331.23 274 1332.43 274.478 1333.43 275.435C1334.44 276.392 1334.95 277.543 1334.95 278.886C1334.95 280.23 1334.44 281.38 1333.43 282.337C1332.43 283.294 1331.23 283.773 1329.82 283.773ZM1346.57 338.5V291.591H1353.53V298.92H1354.14C1355.12 296.416 1356.69 294.472 1358.87 293.087C1361.05 291.683 1363.67 290.98 1366.72 290.98C1369.82 290.98 1372.39 291.683 1374.45 293.087C1376.52 294.472 1378.14 296.416 1379.3 298.92H1379.79C1380.99 296.498 1382.8 294.574 1385.2 293.148C1387.6 291.703 1390.48 290.98 1393.84 290.98C1398.04 290.98 1401.47 292.293 1404.13 294.92C1406.8 297.526 1408.13 301.588 1408.13 307.105V338.5H1400.93V307.105C1400.93 303.644 1399.98 301.17 1398.09 299.684C1396.19 298.198 1393.96 297.455 1391.4 297.455C1388.1 297.455 1385.54 298.452 1383.73 300.447C1381.92 302.422 1381.01 304.927 1381.01 307.96V338.5H1373.68V306.372C1373.68 303.705 1372.82 301.557 1371.09 299.928C1369.36 298.279 1367.13 297.455 1364.4 297.455C1362.53 297.455 1360.78 297.953 1359.15 298.951C1357.54 299.949 1356.24 301.333 1355.24 303.104C1354.26 304.855 1353.77 306.881 1353.77 309.182V338.5H1346.57ZM1421.31 338.5V291.591H1428.52V338.5H1421.31ZM1424.98 283.773C1423.57 283.773 1422.36 283.294 1421.34 282.337C1420.34 281.38 1419.85 280.23 1419.85 278.886C1419.85 277.543 1420.34 276.392 1421.34 275.435C1422.36 274.478 1423.57 274 1424.98 274C1426.38 274 1427.58 274.478 1428.58 275.435C1429.6 276.392 1430.11 277.543 1430.11 278.886C1430.11 280.23 1429.6 281.38 1428.58 282.337C1427.58 283.294 1426.38 283.773 1424.98 283.773ZM1462.12 291.591V297.699H1437.81V291.591H1462.12ZM1444.9 280.352H1452.1V325.062C1452.1 327.098 1452.4 328.625 1452.99 329.643C1453.6 330.641 1454.37 331.313 1455.31 331.659C1456.27 331.985 1457.27 332.148 1458.33 332.148C1459.13 332.148 1459.78 332.107 1460.29 332.026C1460.8 331.924 1461.2 331.842 1461.51 331.781L1462.98 338.256C1462.49 338.439 1461.8 338.622 1460.93 338.805C1460.05 339.009 1458.94 339.111 1457.6 339.111C1455.56 339.111 1453.57 338.673 1451.61 337.798C1449.68 336.922 1448.07 335.589 1446.79 333.797C1445.53 332.005 1444.9 329.745 1444.9 327.017V280.352ZM1505.35 302.097L1498.87 303.929C1498.47 302.85 1497.87 301.801 1497.07 300.783C1496.3 299.745 1495.24 298.89 1493.9 298.218C1492.55 297.546 1490.83 297.21 1488.74 297.21C1485.86 297.21 1483.47 297.872 1481.56 299.195C1479.67 300.498 1478.72 302.158 1478.72 304.173C1478.72 305.965 1479.37 307.38 1480.67 308.418C1481.98 309.457 1484.01 310.322 1486.78 311.014L1493.74 312.724C1497.94 313.742 1501.06 315.3 1503.12 317.397C1505.18 319.474 1506.2 322.151 1506.2 325.429C1506.2 328.116 1505.43 330.519 1503.88 332.636C1502.36 334.754 1500.22 336.423 1497.47 337.645C1494.72 338.866 1491.52 339.477 1487.88 339.477C1483.1 339.477 1479.14 338.439 1476 336.362C1472.87 334.286 1470.88 331.252 1470.05 327.261L1476.89 325.551C1477.54 328.076 1478.77 329.969 1480.58 331.232C1482.41 332.494 1484.81 333.125 1487.76 333.125C1491.12 333.125 1493.78 332.412 1495.76 330.987C1497.76 329.542 1498.75 327.811 1498.75 325.795C1498.75 324.167 1498.18 322.803 1497.04 321.703C1495.9 320.583 1494.15 319.749 1491.79 319.199L1483.97 317.366C1479.68 316.348 1476.52 314.771 1474.5 312.633C1472.51 310.475 1471.51 307.777 1471.51 304.54C1471.51 301.893 1472.25 299.552 1473.74 297.516C1475.25 295.48 1477.29 293.881 1479.88 292.721C1482.49 291.56 1485.44 290.98 1488.74 290.98C1493.38 290.98 1497.02 291.998 1499.67 294.034C1502.34 296.07 1504.23 298.758 1505.35 302.097ZM1522.31 338.989C1520.8 338.989 1519.51 338.449 1518.43 337.37C1517.35 336.291 1516.81 334.998 1516.81 333.491C1516.81 331.985 1517.35 330.692 1518.43 329.613C1519.51 328.534 1520.8 327.994 1522.31 327.994C1523.81 327.994 1525.11 328.534 1526.19 329.613C1527.26 330.692 1527.8 331.985 1527.8 333.491C1527.8 334.489 1527.55 335.405 1527.04 336.24C1526.55 337.075 1525.89 337.747 1525.06 338.256C1524.24 338.744 1523.32 338.989 1522.31 338.989Z" fill="white"/>
<defs>
<clipPath id="clip0_44_40">
<rect width="376" height="412" fill="white" transform="translate(42 24)"/>
</clipPath>
</defs>
</svg>
